<svg xmlns="http://www.w3.org/2000/svg" width="1600" height="800" viewBox="0 0 1600 800" version="1.1">
	<path d="M 98 0.967 C 97.175 1.433, 91.100 2.346, 84.500 2.995 C 62.290 5.178, 36.008 10.556, 12.258 17.778 L 0.016 21.500 0.008 28.750 C 0.004 32.737, 0.337 35.997, 0.750 35.994 C 1.163 35.991, 5.775 34.620, 11 32.947 C 107.443 2.072, 212.332 10.068, 302.325 55.155 C 366.333 87.223, 420.242 136.428, 458.280 197.500 C 506.269 274.551, 525.304 366.834, 511.908 457.494 C 493.236 583.859, 411.854 693.596, 295.781 748.922 C 206.566 791.446, 105.318 798.247, 11 768.053 C 5.775 766.380, 1.163 765.009, 0.750 765.006 C 0.337 765.003, 0.004 768.263, 0.008 772.250 L 0.016 779.500 12.258 783.220 C 33.419 789.651, 52.844 793.865, 78.500 797.590 C 93.101 799.711, 149.227 800.669, 165.685 799.079 C 296.585 786.432, 410.019 714.080, 476.232 601 C 504.050 553.493, 520.506 503.429, 528.169 443 C 530.220 426.820, 529.915 371.205, 527.681 354.189 C 522.587 315.386, 514.880 285.144, 501.764 252.500 C 454.347 134.479, 353.455 45.260, 231.500 13.505 C 209.385 7.746, 186.606 3.678, 168.780 2.304 C 164.464 1.971, 160.695 1.316, 160.407 0.849 C 159.723 -0.257, 99.964 -0.145, 98 0.967 M 71.512 127.002 C 40.169 158.351, 14.181 184, 13.762 184 C 13.343 184, 13 172.750, 13 159 L 13 134 6.500 134 L 0 134 0 175.500 C 0 198.325, 0.339 217, 0.753 217 C 1.167 217, 30.078 188.425, 65 153.500 C 99.922 118.575, 128.946 90, 129.499 90 C 130.051 90, 184.165 143.663, 249.752 209.252 L 369 328.503 369 446.252 L 369 564 184.500 564 L 0 564 0 570.995 L 0 577.990 190.596 578.245 C 295.423 578.385, 381.596 578.250, 382.092 577.943 C 382.615 577.620, 383.098 526.163, 383.246 454.943 L 383.500 332.500 406.774 332.500 L 430.047 332.500 430.012 454.709 C 429.979 570.438, 430.070 576.962, 431.738 577.758 C 433.971 578.823, 442.912 578.488, 444.106 577.294 C 444.634 576.766, 444.902 510.496, 444.753 416.947 L 444.500 257.500 380.991 257.243 L 317.481 256.985 223.993 163.493 C 172.574 112.072, 130.053 70.001, 129.502 70.002 C 128.951 70.003, 102.855 95.653, 71.512 127.002 M 643.251 229.478 C 629.788 233.275, 620.668 241.719, 615.994 254.714 C 614.117 259.932, 613.824 262.433, 614.169 270.316 C 614.522 278.398, 615.029 280.617, 617.814 286.273 C 621.878 294.530, 629.796 302.001, 637.753 305.089 C 642.190 306.810, 645.666 307.333, 653 307.380 C 664.512 307.455, 671.161 305.635, 679.822 300.037 L 686.050 296.012 685.775 279.756 L 685.500 263.500 669.500 263.500 L 653.500 263.500 653.200 269.250 C 652.982 273.434, 653.254 275.015, 654.200 275.056 C 654.915 275.087, 659.100 275.199, 663.500 275.306 L 671.500 275.500 671.795 282.787 L 672.089 290.073 667.295 292.277 C 660.972 295.183, 647.215 295.415, 642.219 292.699 C 637.546 290.160, 633.050 285.221, 630.659 280 C 627.687 273.509, 627.815 262.185, 630.934 255.730 C 638.084 240.933, 655.657 236.598, 669.836 246.133 L 674.172 249.049 678.487 244.349 C 680.861 241.764, 682.617 239.164, 682.389 238.572 C 681.771 236.960, 673.943 232.246, 668.920 230.460 C 662.488 228.173, 649.621 227.681, 643.251 229.478 M 740.024 229.603 C 728.874 232.599, 719.682 240.184, 714.584 250.597 C 710.786 258.353, 709.801 272.006, 712.449 280.194 C 716.202 291.806, 724.511 300.694, 735.748 305.120 C 743.827 308.302, 758.020 308.281, 766.285 305.074 C 774.351 301.945, 783.042 293.691, 787.232 285.180 C 790.295 278.959, 790.500 277.882, 790.500 268.021 C 790.500 258.307, 790.261 257.002, 787.389 251 C 778.872 233.207, 759.380 224.402, 740.024 229.603 M 1287.500 228.647 C 1286.400 228.925, 1283.787 229.592, 1281.693 230.130 C 1273.680 232.188, 1266.067 242.132, 1266.022 250.601 C 1265.954 263.290, 1273.190 269.451, 1294.766 275.074 C 1303.621 277.381, 1309 281.077, 1309 284.854 C 1309 296.354, 1290.500 298.631, 1276.320 288.876 C 1274.021 287.294, 1271.734 286, 1271.237 286 C 1269.970 286, 1263.996 293.605, 1264.018 295.191 C 1264.043 297.013, 1272.320 302.229, 1279.500 304.949 C 1288.083 308.200, 1301.402 308.231, 1308.794 305.018 C 1323.928 298.438, 1327.766 280.125, 1316.153 269.904 C 1312.633 266.805, 1309.496 265.301, 1301.584 262.918 C 1282.362 257.129, 1280 255.738, 1280 250.212 C 1280 240.745, 1293.836 237.970, 1306.591 244.878 C 1309.761 246.595, 1312.649 248, 1313.008 248 C 1313.831 248, 1320 239.468, 1320 238.329 C 1320 237.108, 1311.835 232.362, 1306.807 230.661 C 1302.046 229.050, 1290.624 227.859, 1287.500 228.647 M 810.180 230.220 C 808.554 231.846, 808.614 241.979, 810.250 242.068 C 810.938 242.106, 816.112 242.147, 821.748 242.161 C 827.385 242.174, 832.244 242.586, 832.547 243.076 C 832.850 243.566, 833.096 257.317, 833.094 273.633 C 833.091 291.312, 833.490 304.047, 834.080 305.150 C 834.854 306.596, 836.238 307, 840.413 307 C 843.745 307, 846.188 306.479, 846.905 305.615 C 847.719 304.633, 848.030 295.447, 847.971 274.110 C 847.925 257.544, 848.139 243.585, 848.446 243.088 C 848.753 242.591, 853.615 242.174, 859.252 242.161 C 864.888 242.147, 870.063 242.106, 870.750 242.068 C 872.622 241.966, 872.459 230.390, 870.575 229.667 C 869.791 229.366, 856.147 229.102, 840.255 229.080 C 819.335 229.050, 811.035 229.365, 810.180 230.220 M 896.475 230.204 C 896.200 230.921, 896.093 248.381, 896.238 269.004 L 896.500 306.500 921 306.782 C 934.475 306.936, 946.535 306.810, 947.799 306.500 C 949.911 305.983, 950.074 305.472, 949.799 300.219 L 949.500 294.500 929.750 294.229 L 910 293.958 910 262.601 C 910 238.701, 909.703 231.014, 908.750 230.273 C 906.763 228.729, 897.062 228.674, 896.475 230.204 M 1001.025 236.250 C 983.531 275.362, 970.975 305.375, 971.772 306.172 C 972.287 306.687, 975.348 306.972, 978.573 306.804 L 984.438 306.500 987.980 298.500 C 989.927 294.100, 991.881 289.938, 992.320 289.250 C 992.909 288.328, 997.711 288, 1010.622 288 L 1028.125 288 1031.072 294.750 C 1036.491 307.163, 1035.810 306.464, 1042.797 306.798 C 1047.233 307.010, 1049.171 306.719, 1049.529 305.786 C 1049.805 305.065, 1046.599 296.606, 1042.403 286.988 C 1035.912 272.108, 1026.014 249.449, 1018.930 233.250 L 1017.071 229 1010.669 229 L 1004.268 229 1001.025 236.250 M 1075.238 229.832 C 1074.250 230.459, 1074.033 238.884, 1074.238 268.567 L 1074.500 306.500 1078.920 306.816 C 1081.351 306.989, 1084.388 306.868, 1085.670 306.547 L 1088 305.962 1088 279.981 C 1088 265.691, 1088.342 254, 1088.759 254 C 1089.177 254, 1090.011 254.787, 1090.613 255.750 C 1093.043 259.638, 1128.265 304.592, 1129.823 305.794 C 1130.789 306.539, 1133.409 306.963, 1136 306.794 L 1140.500 306.500 1140.500 268 L 1140.500 229.500 1134.500 229.500 L 1128.500 229.500 1128 255.500 L 1127.500 281.500 1121.921 274.500 C 1118.852 270.650, 1110.116 259.400, 1102.508 249.500 C 1094.900 239.600, 1087.987 230.938, 1087.146 230.250 C 1085.452 228.865, 1077.217 228.576, 1075.238 229.832 M 1173.603 229.834 C 1172.770 231.182, 1172.714 304.728, 1173.544 306.072 C 1174.343 307.364, 1199.582 307.236, 1208.308 305.895 C 1228.107 302.853, 1240.810 289.453, 1241.801 270.563 C 1242.770 252.105, 1233.770 238.301, 1216.744 232.132 C 1211.453 230.215, 1207.737 229.781, 1192.401 229.286 C 1179.437 228.867, 1174.104 229.023, 1173.603 229.834 M 743.994 241.934 C 732.925 245.301, 725 256.237, 725 268.144 C 725 272.988, 728.429 282.168, 731.683 286.035 C 733.073 287.687, 736.301 290.268, 738.855 291.770 C 742.814 294.097, 744.607 294.497, 751 294.477 C 762.454 294.441, 769.517 289.872, 774.084 279.544 C 776.962 273.036, 777.010 263.072, 774.194 256.705 C 769.097 245.183, 755.376 238.472, 743.994 241.934 M 1186.885 242.627 C 1186.673 243.107, 1186.628 254.912, 1186.784 268.859 L 1187.068 294.219 1197.784 293.851 C 1207.069 293.532, 1209.268 293.107, 1214.254 290.666 C 1232.737 281.617, 1231.961 253.147, 1213 244.667 C 1209.727 243.203, 1205.605 242.532, 1197.885 242.204 C 1192.047 241.957, 1187.097 242.147, 1186.885 242.627 M 1003.734 261.156 C 1000.622 268.392, 998.310 274.692, 998.597 275.156 C 998.883 275.620, 1004.266 276, 1010.559 276 C 1020.193 276, 1022 275.757, 1022 274.460 C 1022 271.889, 1011.576 248.028, 1010.446 248.014 C 1009.867 248.006, 1006.846 253.920, 1003.734 261.156 M 349.500 289 C 359.389 298.900, 367.821 307, 368.240 307 C 368.658 307, 369 298.900, 369 289 L 369 271 350.260 271 L 331.521 271 349.500 289 M 383 294.500 L 383 318.036 406.581 317.768 L 430.161 317.500 430.161 294.500 L 430.161 271.500 406.581 271.232 L 383 270.964 383 294.500 M 0 417.500 L 0 517.007 129.750 516.754 L 259.500 516.500 259.500 417.500 L 259.500 318.500 129.750 318.246 L 0 317.993 0 417.500 M 14.231 332.826 C 13.253 333.455, 13.023 338.899, 13.231 356.571 L 13.500 379.500 37 379.500 L 60.500 379.500 60.500 356 L 60.500 332.500 38 332.255 C 25.625 332.120, 14.929 332.377, 14.231 332.826 M 75.456 333.254 C 75.183 333.964, 75.082 344.660, 75.230 357.023 L 75.500 379.500 98.726 379.768 L 121.953 380.037 122.509 377.768 C 122.815 376.521, 122.938 365.825, 122.783 354 L 122.500 332.500 99.226 332.232 C 80.938 332.021, 75.845 332.240, 75.456 333.254 M 137 355.982 L 137 380 160.518 380 L 184.036 380 183.768 356.250 L 183.500 332.500 160.250 332.232 L 137 331.963 137 355.982 M 198.449 333.273 C 198.180 333.973, 198.082 344.660, 198.230 357.023 L 198.500 379.500 222 379.500 L 245.500 379.500 245.769 356.571 C 245.977 338.895, 245.748 333.457, 244.769 332.836 C 244.071 332.393, 233.473 332.024, 221.219 332.015 C 204.093 332.004, 198.824 332.294, 198.449 333.273 M 737.589 362.177 C 736.715 363.424, 736 364.785, 736 365.201 C 736 365.616, 732.674 373.503, 728.609 382.728 C 724.545 391.953, 718.868 404.900, 715.994 411.500 C 713.120 418.100, 709.452 426.384, 707.843 429.909 C 706.120 433.683, 705.286 436.686, 705.813 437.213 C 706.306 437.706, 709.362 437.972, 712.604 437.804 C 719.163 437.466, 718.710 437.969, 724.842 424.209 L 727.183 418.955 744.734 419.227 C 759.105 419.451, 762.433 419.772, 763.105 421 C 763.556 421.825, 765.488 425.988, 767.397 430.250 L 770.870 438 777.435 438 C 783.041 438, 783.992 437.744, 783.946 436.250 C 783.916 435.288, 776.574 417.850, 767.629 397.500 L 751.366 360.500 745.272 360.205 C 739.891 359.944, 738.991 360.175, 737.589 362.177 M 989.086 361.661 C 978.574 365.507, 972.585 376.086, 974.795 386.906 C 976.814 396.792, 984.136 401.576, 1005.500 406.966 C 1011.230 408.412, 1015.846 411.537, 1016.582 414.469 C 1019.822 427.381, 997.850 430.513, 983.078 419.246 L 979.653 416.633 975.826 420.945 C 973.722 423.317, 972.001 425.762, 972.002 426.379 C 972.005 428.131, 980.889 433.751, 987.506 436.185 C 992.057 437.859, 995.787 438.403, 1003 438.445 C 1011.423 438.494, 1013.140 438.185, 1018.150 435.725 C 1026.611 431.570, 1031 424.653, 1031 415.473 C 1031 403.993, 1024.269 398.047, 1005.061 392.554 C 993.355 389.207, 990.177 387.596, 988.957 384.387 C 987.486 380.519, 987.765 379.295, 990.918 375.766 C 993.675 372.680, 994.213 372.500, 1000.689 372.500 C 1006.400 372.500, 1008.642 373.042, 1014.144 375.750 C 1017.775 377.538, 1021.025 379, 1021.366 379 C 1022.355 379, 1028 370.835, 1028 369.405 C 1028 368.692, 1024.563 366.411, 1020.362 364.334 C 1013.336 360.862, 1011.955 360.539, 1003.112 360.303 C 996.215 360.119, 992.253 360.502, 989.086 361.661 M 1333.639 361.936 C 1327.961 364.219, 1325.592 366.160, 1322.455 371.097 C 1317.209 379.349, 1318.438 389.848, 1325.438 396.580 C 1329.565 400.549, 1336.567 403.451, 1350.500 406.966 C 1356.230 408.412, 1360.846 411.537, 1361.582 414.469 C 1363.421 421.798, 1358.275 426.002, 1347.500 425.974 C 1339.933 425.955, 1334.335 424.019, 1328.105 419.266 L 1324.653 416.633 1320.826 420.945 C 1318.722 423.317, 1317 425.827, 1317 426.524 C 1317 428.290, 1325.650 433.657, 1332.652 436.236 C 1337.063 437.861, 1340.852 438.404, 1348.071 438.445 C 1356.803 438.495, 1358.158 438.236, 1363.537 435.485 C 1372.044 431.134, 1375.500 425.338, 1375.500 415.421 C 1375.500 408.831, 1375.224 407.843, 1372.411 404.343 C 1368.268 399.190, 1362.954 396.393, 1349.987 392.539 C 1344.012 390.764, 1337.978 388.561, 1336.578 387.643 C 1331.270 384.165, 1332.455 376.436, 1338.753 373.447 C 1343.723 371.089, 1351.645 372.058, 1359.664 376.006 C 1363.145 377.720, 1366.370 378.889, 1366.830 378.605 C 1367.291 378.320, 1368.932 376.263, 1370.478 374.032 C 1373.139 370.192, 1373.198 369.877, 1371.591 368.101 C 1370.658 367.070, 1367.106 364.960, 1363.697 363.414 C 1355.363 359.632, 1341.108 358.931, 1333.639 361.936 M 1506.124 361.351 C 1504.553 363.243, 1473 435.109, 1473 436.794 C 1473 437.757, 1474.720 438.015, 1479.676 437.796 L 1486.352 437.500 1489.928 429.500 C 1491.894 425.100, 1493.867 420.938, 1494.311 420.250 C 1494.906 419.329, 1499.689 419, 1512.487 419 L 1529.855 419 1531.678 423.238 C 1532.680 425.568, 1534.625 429.731, 1536 432.488 L 1538.500 437.500 1545.250 437.796 C 1549.458 437.980, 1552 437.699, 1552 437.048 C 1552 436.475, 1548.804 428.692, 1544.899 419.753 C 1540.993 410.814, 1534.473 395.850, 1530.409 386.500 C 1518.447 358.982, 1519.493 360.552, 1512.910 360.205 C 1508.972 359.997, 1506.966 360.336, 1506.124 361.351 M 617.238 399.250 L 617.500 437.500 624 437.500 L 630.500 437.500 630.781 426.438 L 631.062 415.376 636.902 409.597 L 642.741 403.819 646.860 409.159 C 649.125 412.097, 655.051 419.788, 660.027 426.250 L 669.076 438 676.538 438 C 681.851 438, 683.994 437.640, 683.981 436.750 C 683.970 436.063, 676.995 426.405, 668.481 415.288 C 659.966 404.171, 653 394.529, 653 393.860 C 653 393.191, 659.638 385.959, 667.750 377.788 C 675.862 369.618, 682.650 362.498, 682.833 361.967 C 683.030 361.398, 679.902 361, 675.233 361 L 667.299 361 657.362 371.250 C 651.897 376.887, 643.737 385.325, 639.228 390 L 631.030 398.500 631.015 379.750 L 631 361 623.988 361 L 616.976 361 617.238 399.250 M 808.667 361.667 C 807.834 362.500, 807.776 434.254, 808.607 436.418 C 809.139 437.805, 812.461 438, 835.588 438 L 861.962 438 862.551 435.655 C 862.874 434.365, 862.995 431.552, 862.820 429.405 L 862.500 425.500 842.500 425 L 822.500 424.500 822.236 392.750 L 821.972 361 815.653 361 C 812.177 361, 809.033 361.300, 808.667 361.667 M 886.667 361.667 C 885.834 362.500, 885.776 434.254, 886.607 436.418 C 887.073 437.632, 888.700 438, 893.607 438 L 900 438 900 426.900 L 900 415.801 905.750 409.903 C 909.069 406.498, 911.948 404.321, 912.559 404.752 C 913.141 405.164, 919.137 412.813, 925.883 421.750 L 938.148 438 946.181 438 C 952.383 438, 954.100 437.702, 953.712 436.693 C 953.437 435.974, 946.347 426.428, 937.959 415.479 C 929.570 404.530, 922.660 395.039, 922.603 394.388 C 922.546 393.737, 929.025 386.344, 937 377.958 C 944.975 369.573, 951.650 362.326, 951.833 361.856 C 952.017 361.385, 948.578 361, 944.191 361 L 936.215 361 918.858 379.366 C 909.311 389.468, 901.163 397.541, 900.750 397.307 C 900.337 397.073, 900 388.809, 900 378.941 L 900 361 893.667 361 C 890.183 361, 887.033 361.300, 886.667 361.667 M 1052.202 367.250 L 1052.500 373.500 1064.236 373.782 L 1075.972 374.063 1076.236 405.782 L 1076.500 437.500 1083 437.500 L 1089.500 437.500 1090 406 L 1090.500 374.500 1101.962 374.215 C 1108.267 374.059, 1113.679 373.519, 1113.990 373.017 C 1114.445 372.280, 1114.511 365.102, 1114.094 361.750 C 1114.042 361.337, 1100.029 361, 1082.952 361 L 1051.905 361 1052.202 367.250 M 1138.456 362.254 C 1138.191 362.944, 1138.093 380.156, 1138.237 400.504 L 1138.500 437.500 1167 437.500 L 1195.500 437.500 1195.500 431.500 L 1195.500 425.500 1174 425 L 1152.500 424.500 1152.500 415 L 1152.500 405.500 1171.500 405 L 1190.500 404.500 1190.500 399 L 1190.500 393.500 1171.500 393 L 1152.500 392.500 1152.500 383 L 1152.500 373.500 1173.750 373.230 C 1185.438 373.082, 1195.032 372.632, 1195.070 372.230 C 1195.201 370.876, 1195.235 363.511, 1195.117 362.250 C 1194.946 360.428, 1139.155 360.432, 1138.456 362.254 M 1223.607 362.582 C 1222.678 365.003, 1222.916 435.319, 1223.858 436.805 C 1224.425 437.699, 1226.544 438.013, 1230.593 437.805 L 1236.500 437.500 1237 411 L 1237.500 384.500 1243.087 391.500 C 1246.161 395.350, 1255.555 407.408, 1263.964 418.296 L 1279.252 438.092 1284.876 437.796 L 1290.500 437.500 1290.500 399.500 L 1290.500 361.500 1283.750 361.204 L 1277 360.909 1277 385.788 C 1277 399.471, 1276.726 410.941, 1276.391 411.275 C 1276.057 411.610, 1273.469 408.847, 1270.641 405.136 C 1267.814 401.424, 1258.975 389.977, 1251 379.697 L 1236.500 361.006 1230.357 361.003 C 1225.676 361.001, 1224.070 361.376, 1223.607 362.582 M 1403.238 399.250 L 1403.500 437.500 1410 437.500 L 1416.500 437.500 1416.776 422.272 L 1417.052 407.044 1435.776 406.772 L 1454.500 406.500 1454.798 400.250 L 1455.095 394 1436.013 394 L 1416.930 394 1417.215 383.750 L 1417.500 373.500 1438.750 373.230 L 1460 372.960 1460 366.980 L 1460 361 1431.488 361 L 1402.976 361 1403.238 399.250 M 1576.238 399.250 L 1576.500 437.500 1588.250 437.782 L 1600 438.063 1600 431.442 L 1600 424.820 1595.250 425.160 L 1590.500 425.500 1590.215 415.250 L 1589.930 405 1594.965 405 L 1600 405 1600 399.055 L 1600 393.110 1595.250 392.805 L 1590.500 392.500 1590.214 382.750 L 1589.928 373 1594.964 373 L 1600 373 1600 367 L 1600 361 1587.988 361 L 1575.976 361 1576.238 399.250 M 737.878 392.491 C 734.786 399.878, 732.498 406.165, 732.795 406.461 C 733.697 407.363, 755.844 407.061, 756.414 406.139 C 757.148 404.951, 745.740 378.995, 744.500 379.031 C 743.950 379.046, 740.970 385.104, 737.878 392.491 M 1505.741 392.141 C 1502.625 399.385, 1500.310 405.692, 1500.597 406.156 C 1501.164 407.074, 1523.317 407.349, 1524.217 406.450 C 1524.911 405.755, 1513.441 379.647, 1512.270 379.257 C 1511.795 379.098, 1508.857 384.896, 1505.741 392.141 M 13.456 395.255 C 13.183 395.966, 13.081 406.437, 13.230 418.524 L 13.500 440.500 37 440.500 L 60.500 440.500 60.500 417.500 L 60.500 394.500 37.226 394.232 C 18.929 394.020, 13.845 394.239, 13.456 395.255 M 75 417.500 L 75 441.036 98.750 440.768 L 122.500 440.500 122.500 417.500 L 122.500 394.500 98.750 394.232 L 75 393.964 75 417.500 M 137 417.500 L 137 441 160.500 441 L 184 441 184 417.500 L 184 394 160.500 394 L 137 394 137 417.500 M 198.456 395.255 C 198.183 395.966, 198.081 406.437, 198.230 418.524 L 198.500 440.500 222.268 440.768 L 246.037 441.036 245.768 417.768 L 245.500 394.500 222.226 394.232 C 203.929 394.020, 198.845 394.239, 198.456 395.255 M 13.491 457.232 C 13.185 458.479, 13.062 469.175, 13.217 481 L 13.500 502.500 37 502.500 L 60.500 502.500 60.500 479 L 60.500 455.500 37.274 455.232 L 14.047 454.963 13.491 457.232 M 75.449 456.273 C 75.180 456.973, 75.082 467.660, 75.230 480.023 L 75.500 502.500 99 502.500 L 122.500 502.500 122.783 481 C 122.938 469.175, 122.817 458.488, 122.514 457.250 L 121.962 455 98.950 455 C 81.244 455, 75.825 455.293, 75.449 456.273 M 137 479 L 137 503 160.500 503 L 184 503 184 479 L 184 455 160.500 455 L 137 455 137 479 M 198.491 457.232 C 198.185 458.479, 198.062 469.175, 198.217 481 L 198.500 502.500 222 502.500 L 245.500 502.500 245.500 479 L 245.500 455.500 222.274 455.232 L 199.047 454.963 198.491 457.232 M 915.308 492.879 C 908.928 495.252, 908.547 495.469, 903.134 499.817 C 883.574 515.528, 884.582 549.004, 905.040 563.128 C 919.107 572.839, 942.470 572.150, 956.282 561.615 L 960.500 558.398 960.500 542.449 L 960.500 526.500 944.500 526.500 L 928.500 526.500 928.500 532 L 928.500 537.500 938 538 L 947.500 538.500 947.500 544.953 C 947.500 551.140, 947.364 551.497, 944.188 553.644 C 936.244 559.016, 923.033 558.841, 914.713 553.253 C 898.799 542.565, 900.181 515.567, 917.098 506.657 C 922.041 504.054, 923.197 503.847, 930.698 504.224 C 937.773 504.580, 939.596 505.072, 944.014 507.818 C 946.829 509.568, 949.440 510.971, 949.816 510.936 C 950.192 510.901, 952.208 508.822, 954.295 506.315 C 957.924 501.959, 958.015 501.674, 956.368 499.854 C 955.421 498.807, 951.762 496.531, 948.239 494.797 C 942.494 491.968, 940.730 491.607, 931.166 491.295 C 922.480 491.012, 919.536 491.306, 915.308 492.879 M 1002.670 492.559 C 996.303 494.600, 989.530 501.321, 987.955 507.161 C 986.515 512.500, 987.318 520.141, 989.760 524.347 C 992.294 528.709, 1000.541 533.391, 1010.291 536.001 C 1021.993 539.133, 1027.546 541.708, 1028.870 544.614 C 1030.654 548.530, 1030.216 550.938, 1027.163 553.991 C 1021.401 559.752, 1008.226 558.760, 998.046 551.797 L 992.500 548.004 988.136 552.725 L 983.772 557.446 987.052 560.185 C 995.235 567.016, 1007.151 570.550, 1019.216 569.723 C 1029.318 569.030, 1036.165 565.431, 1040.445 558.562 C 1042.926 554.580, 1043.394 552.785, 1043.416 547.168 C 1043.469 533.661, 1037.962 529.217, 1012.738 522.407 C 1001.470 519.365, 997.435 512.177, 1003.929 506.714 C 1009.569 501.967, 1018.499 502.412, 1028.721 507.948 L 1033.942 510.776 1037.565 506.355 C 1039.695 503.755, 1040.950 501.312, 1040.609 500.425 C 1040.291 499.595, 1036.633 497.302, 1032.480 495.330 C 1025.988 492.247, 1023.710 491.693, 1016.215 491.378 C 1010.198 491.124, 1006.005 491.490, 1002.670 492.559 M 617.456 493.254 C 617.191 493.944, 617.093 511.156, 617.237 531.504 L 617.500 568.500 638.422 568.771 C 654.665 568.981, 660.495 568.707, 664.485 567.547 C 675.677 564.294, 680.955 557.847, 680.984 547.398 C 680.996 542.688, 680.481 540.526, 678.726 537.922 C 676.657 534.851, 671.730 530.807, 668.702 529.692 C 667.966 529.422, 668.932 527.747, 671.190 525.375 C 675.507 520.842, 677 517.381, 677 511.903 C 677 503.396, 671.145 496.308, 661.833 493.543 C 655.008 491.516, 618.215 491.277, 617.456 493.254 M 706.708 492.626 C 705.663 493.671, 705.907 533.310, 707.011 541.811 C 708.193 550.915, 710.652 556.585, 715.533 561.467 C 721.942 567.876, 726.793 569.501, 739.500 569.496 C 749.123 569.492, 751.113 569.188, 755.395 567.067 C 764.971 562.326, 770.110 554.665, 772.013 542.295 C 772.588 538.558, 772.933 525.825, 772.779 514 L 772.500 492.500 765.750 492.204 L 759 491.909 759 514.318 C 759 537.921, 758.141 545.931, 755.179 549.938 C 751.577 554.811, 748.289 556.418, 741.092 556.825 C 732.576 557.306, 727.913 555.336, 724.161 549.670 L 721.500 545.653 721 519.076 L 720.500 492.500 713.958 492.209 C 710.359 492.049, 707.097 492.237, 706.708 492.626 M 803 530.476 L 803 569.091 809.750 568.796 L 816.500 568.500 817 555.500 L 817.500 542.500 823.458 542.194 C 826.735 542.026, 830.402 542.135, 831.606 542.437 C 832.975 542.781, 837.231 547.864, 842.957 555.993 L 852.119 569 859.560 569 C 864.386 569, 867 568.606, 867 567.880 C 867 567.263, 863.110 561.325, 858.355 554.683 C 853.600 548.042, 849.524 541.896, 849.297 541.026 C 849.016 539.952, 849.993 539.043, 852.340 538.194 C 856.891 536.548, 863.574 529.195, 864.919 524.355 C 866.289 519.418, 866.281 513.566, 864.895 508.500 C 863.530 503.511, 855.668 495.629, 850.323 493.891 C 847.942 493.117, 838.294 492.500, 824.750 492.254 L 803 491.860 803 530.476 M 1063.012 492.750 C 1063.019 493.163, 1065.533 499.575, 1068.599 507 C 1071.665 514.425, 1077.684 529.050, 1081.975 539.500 C 1086.265 549.950, 1090.926 561.087, 1092.333 564.250 L 1094.890 570 1100.419 570 C 1107.088 570, 1105.217 573.090, 1119.487 538.500 C 1125.386 524.200, 1131.965 508.267, 1134.107 503.092 C 1136.248 497.918, 1138 493.286, 1138 492.798 C 1138 492.311, 1134.739 492.045, 1130.753 492.206 L 1123.507 492.500 1117.323 508 C 1113.922 516.525, 1108.979 529.237, 1106.338 536.250 C 1103.698 543.263, 1101.177 549, 1100.737 549 C 1100.297 549, 1099.673 548.212, 1099.351 547.250 C 1099.028 546.288, 1094.948 535.825, 1090.285 524 C 1085.621 512.175, 1080.917 500.137, 1079.831 497.250 L 1077.856 492 1070.428 492 C 1066.343 492, 1063.006 492.337, 1063.012 492.750 M 1162.456 493.254 C 1162.191 493.944, 1162.093 511.156, 1162.237 531.504 L 1162.500 568.500 1169.250 568.796 L 1176 569.091 1176 530.546 L 1176 492 1169.469 492 C 1165.155 492, 1162.774 492.426, 1162.456 493.254 M 1208 530.500 L 1208 569.091 1214.750 568.796 L 1221.500 568.500 1221.598 557.760 L 1221.696 547.020 1227.335 540.918 L 1232.974 534.816 1235.302 537.658 C 1236.582 539.221, 1242.494 546.913, 1248.439 554.750 L 1259.249 569 1267.124 569 C 1271.456 569, 1275 568.662, 1275 568.248 C 1275 567.834, 1267.814 558.094, 1259.031 546.603 C 1248.794 533.210, 1243.324 525.243, 1243.792 524.407 C 1244.193 523.691, 1250.929 516.610, 1258.761 508.673 C 1266.592 500.736, 1273 493.738, 1273 493.121 C 1273 492.388, 1270.316 492.005, 1265.250 492.014 L 1257.500 492.027 1240.103 510.533 C 1230.535 520.712, 1222.499 528.833, 1222.247 528.580 C 1221.994 528.327, 1221.722 520.105, 1221.643 510.310 L 1221.500 492.500 1214.750 492.204 L 1208 491.909 1208 530.500 M 631.667 504.667 C 631.300 505.033, 631 509.533, 631 514.667 L 631 524 642.435 524 C 648.724 524, 655.099 523.533, 656.601 522.962 C 666.388 519.241, 664.600 507, 653.971 504.950 C 648.643 503.922, 632.615 503.718, 631.667 504.667 M 817 517.500 L 817 530 828.750 529.978 C 843.226 529.951, 848.174 528.222, 850.636 522.330 C 852.465 517.951, 851.899 512.651, 849.295 509.774 C 845.636 505.731, 842.615 505, 829.550 505 L 817 505 817 517.500 M 631.215 546.250 L 631.500 556.500 641 556.812 C 655.253 557.281, 660.788 556.366, 664.170 552.984 C 667.887 549.267, 668.112 543.393, 664.660 540.150 C 661.147 536.850, 656.755 536, 643.222 536 L 630.930 536 631.215 546.250 M 71.672 631.373 C 56.842 635.543, 49.800 649.157, 56.531 660.644 C 57.924 663.019, 59.949 665.437, 61.031 666.017 C 63.548 667.364, 63.564 669.686, 61.062 670.480 C 57.976 671.460, 53.184 677.602, 51.961 682.146 C 49.178 692.480, 55.322 702.676, 67 707.101 C 75.058 710.155, 90.360 709.498, 97.500 705.793 C 105.853 701.458, 110 695.223, 110 687 C 110 681.105, 107.906 676.968, 102.527 672.233 L 97.781 668.055 100.926 665.408 C 102.656 663.953, 104.763 661.426, 105.607 659.792 C 107.560 656.016, 107.589 647.032, 105.661 643.338 C 100.442 633.344, 84.554 627.751, 71.672 631.373 M 6.250 633.192 L 0 635.174 -0 641.218 L -0 647.262 3.250 646.716 C 5.037 646.416, 7.288 645.859, 8.250 645.478 C 9.894 644.828, 10 646.694, 10 676.393 L 10 708 17 708 L 24 708 24 669.500 L 24 631 18.250 631.106 C 15.088 631.164, 9.688 632.103, 6.250 633.192 M 131.613 632.566 C 130.491 635.490, 130.980 641.739, 132.425 642.938 C 133.421 643.764, 139.006 644.063, 150.961 643.929 C 160.371 643.824, 168.332 643.998, 168.650 644.317 C 168.969 644.636, 167.667 647.732, 165.756 651.198 C 163.845 654.664, 159.447 662.900, 155.983 669.500 C 152.518 676.100, 146.605 687.230, 142.842 694.234 C 139.079 701.238, 136 707.220, 136 707.526 C 136 707.833, 139.488 707.953, 143.750 707.792 L 151.500 707.500 168.750 674.500 C 185.057 643.304, 185.986 641.227, 185.750 636.500 L 185.500 631.500 158.863 631.234 C 135.227 630.998, 132.157 631.148, 131.613 632.566 M 210.684 631.650 C 210.308 632.026, 210 634.733, 210 637.667 L 210 643 225.573 643 C 238.369 643, 241.089 643.248, 240.823 644.392 C 240.645 645.158, 236.333 650.126, 231.241 655.431 C 223.024 663.992, 222.054 665.384, 222.629 667.789 C 223.961 673.364, 224.744 674, 230.285 674.006 C 241.068 674.017, 248.004 678.451, 247.996 685.327 C 247.981 697.924, 229.966 701.156, 218.794 690.565 C 217.305 689.154, 215.484 688, 214.747 688 C 213.141 688, 206 695.109, 206 696.707 C 206 698.446, 215.471 704.985, 221.281 707.257 C 227.281 709.604, 240.548 710.057, 245.500 708.084 C 257.869 703.155, 264.267 691.157, 261.010 679 C 259.338 672.759, 252.886 666.668, 246.108 664.931 C 243.298 664.211, 241 663.136, 241 662.542 C 241 661.948, 245.516 656.971, 251.035 651.481 L 261.071 641.500 260.785 636.500 L 260.500 631.500 235.934 631.233 C 222.422 631.086, 211.060 631.274, 210.684 631.650 M 73.372 643.589 C 64.158 648.134, 65.958 660.048, 76.296 662.943 C 91.243 667.128, 101.403 649.245, 87.401 643.394 C 83.052 641.577, 77.288 641.657, 73.372 643.589 M 72.415 676.421 C 64.956 679.669, 62.698 687.852, 67.842 692.996 C 71.899 697.053, 78.092 698.550, 84.975 697.136 C 94.322 695.216, 98.688 688.390, 94.989 681.480 C 92.057 676.001, 79.727 673.238, 72.415 676.421" stroke="none" fill="#000000" fill-rule="evenodd"/>
</svg>