<svg xmlns="http://www.w3.org/2000/svg" width="1600" height="2133" viewBox="0 0 1600 2133" version="1.1">
  <g transform="translate(24.211, -82.482) scale(1.35745)">
    <path d="M 364 120.910 C 364 121.411, 360.063 122.118, 355.250 122.481 C 341.681 123.506, 325.037 125.919, 303 130.055 C 290.500 132.401, 267.720 138.250, 252.500 143.023 C 250.850 143.540, 247.363 144.524, 244.750 145.209 L 240 146.455 240 155.727 C 240 161.847, 240.377 165, 241.108 165 C 241.718 165, 247.005 163.427, 252.858 161.505 C 258.711 159.583, 264.850 157.573, 266.500 157.038 C 272.005 155.254, 297.433 148.902, 302.500 148.045 C 305.250 147.580, 311.325 146.445, 316 145.523 C 326.964 143.360, 333.177 142.541, 357.500 140.050 C 397.340 135.970, 450.815 138.210, 488 145.516 C 492.675 146.435, 498.559 147.555, 501.076 148.006 C 506.181 148.919, 532.832 155.524, 537.500 157.033 C 556.547 163.188, 565.837 166.270, 567.500 166.985 C 568.600 167.458, 571.750 168.629, 574.500 169.588 C 577.250 170.546, 579.927 171.706, 580.450 172.165 C 580.972 172.624, 581.973 173, 582.673 173 C 583.373 173, 586.545 174.185, 589.723 175.634 C 592.900 177.083, 597.525 179.169, 600 180.271 C 607.473 183.597, 628.143 193.845, 633.893 197.074 C 646.606 204.214, 658.832 211.533, 663.252 214.649 C 665.866 216.492, 668.225 218, 668.495 218 C 669.403 218, 694.426 236.260, 703.534 243.569 C 727.298 262.641, 753.515 288.245, 772.065 310.500 C 785.730 326.894, 803 350.011, 803 351.909 C 803 352.417, 803.361 352.983, 803.803 353.167 C 804.777 353.571, 816.772 372.906, 824.172 386 C 832.206 400.213, 848 432.751, 848 435.087 C 848 435.604, 848.428 436.809, 848.952 437.764 C 851.260 441.976, 856.004 454.721, 861.324 471 C 866.351 486.386, 867.490 490.332, 870.416 502.500 C 871.871 508.550, 873.460 515.075, 873.948 517 C 874.435 518.925, 875.559 524.550, 876.445 529.500 C 877.331 534.450, 878.463 540.750, 878.960 543.500 C 880.307 550.942, 882.766 571.821, 883.965 586 C 886.598 617.118, 884.319 667.885, 878.960 697.500 C 878.463 700.250, 877.331 706.550, 876.445 711.500 C 875.559 716.450, 874.435 722.075, 873.948 724 C 873.460 725.925, 871.871 732.450, 870.416 738.500 C 867.490 750.668, 866.351 754.614, 861.324 770 C 856.004 786.279, 851.260 799.024, 848.952 803.236 C 848.428 804.191, 848 805.396, 848 805.913 C 848 808.249, 832.206 840.787, 824.172 855 C 816.772 868.094, 804.777 887.429, 803.803 887.833 C 803.361 888.017, 803 888.586, 803 889.099 C 803 890.907, 785.058 914.923, 772.068 930.500 C 753.492 952.777, 727.291 978.365, 703.534 997.431 C 694.426 1004.740, 669.403 1023, 668.495 1023 C 668.225 1023, 665.866 1024.508, 663.252 1026.351 C 658.832 1029.467, 646.606 1036.786, 633.893 1043.926 C 628.143 1047.155, 607.473 1057.403, 600 1060.729 C 597.525 1061.831, 592.900 1063.917, 589.723 1065.366 C 586.545 1066.815, 583.373 1068, 582.673 1068 C 581.973 1068, 580.973 1068.376, 580.450 1068.835 C 579.928 1069.294, 577.250 1070.454, 574.500 1071.412 C 571.750 1072.371, 568.600 1073.542, 567.500 1074.015 C 565.837 1074.730, 556.547 1077.812, 537.500 1083.967 C 532.832 1085.476, 506.181 1092.081, 501.076 1092.994 C 498.559 1093.445, 492.675 1094.565, 488 1095.484 C 450.815 1102.790, 397.340 1105.030, 357.500 1100.950 C 333.177 1098.459, 326.964 1097.640, 316 1095.477 C 311.325 1094.555, 305.250 1093.420, 302.500 1092.955 C 297.433 1092.098, 272.005 1085.746, 266.500 1083.962 C 264.850 1083.427, 258.711 1081.417, 252.858 1079.495 C 247.005 1077.573, 241.718 1076, 241.108 1076 C 240.377 1076, 240 1079.153, 240 1085.273 L 240 1094.545 244.750 1095.791 C 247.362 1096.476, 250.850 1097.460, 252.500 1097.977 C 267.720 1102.750, 290.500 1108.599, 303 1110.945 C 324.977 1115.070, 339.676 1117.163, 360 1119.060 C 374.680 1120.430, 440.504 1119.792, 454.500 1118.144 C 487.435 1114.265, 515.329 1108.701, 543 1100.493 C 546.025 1099.595, 549.850 1098.484, 551.500 1098.023 C 555.121 1097.011, 566.716 1093.158, 569.500 1092.042 C 570.600 1091.600, 573.300 1090.560, 575.500 1089.730 C 585.842 1085.826, 593.951 1082.572, 598.777 1080.388 C 601.680 1079.075, 604.274 1078, 604.542 1078 C 605.367 1078, 637.161 1062.209, 643 1058.899 C 646.025 1057.185, 650.314 1054.770, 652.531 1053.533 C 654.748 1052.296, 660.598 1048.735, 665.531 1045.619 C 670.464 1042.504, 675.374 1039.402, 676.442 1038.727 C 687.299 1031.867, 713.992 1011.888, 725 1002.381 C 726.375 1001.194, 729.750 998.326, 732.500 996.008 C 743.526 986.715, 769.019 960.964, 780.520 947.500 C 783.809 943.650, 786.725 940.275, 787 940 C 788.056 938.944, 795.669 929.315, 798.464 925.500 C 800.076 923.300, 801.672 921.275, 802.012 921 C 804.822 918.724, 829.739 881.153, 837.526 867.449 C 848.881 847.464, 864.309 814.107, 872.121 792.648 C 878.697 774.583, 886.180 750.227, 888.296 740 C 888.580 738.625, 889.570 734.350, 890.496 730.500 C 892.326 722.889, 893.053 719.178, 895.396 705.500 C 896.243 700.550, 897.150 695.600, 897.411 694.500 C 899.457 685.876, 903.006 638.939, 903.006 620.500 C 903.006 602.061, 899.457 555.124, 897.411 546.500 C 897.150 545.400, 896.243 540.450, 895.396 535.500 C 893.053 521.822, 892.326 518.111, 890.496 510.500 C 889.570 506.650, 888.580 502.375, 888.296 501 C 886.180 490.773, 878.697 466.417, 872.121 448.352 C 864.309 426.893, 848.881 393.536, 837.526 373.551 C 829.739 359.847, 804.822 322.276, 802.012 320 C 801.672 319.725, 800.076 317.700, 798.464 315.500 C 795.669 311.685, 788.056 302.056, 787 301 C 786.725 300.725, 783.809 297.350, 780.520 293.500 C 769.019 280.036, 743.526 254.285, 732.500 244.992 C 729.750 242.674, 726.375 239.806, 725 238.619 C 713.992 229.112, 687.299 209.133, 676.442 202.273 C 675.374 201.598, 670.464 198.496, 665.531 195.381 C 660.598 192.265, 654.748 188.704, 652.531 187.467 C 650.314 186.230, 646.025 183.815, 643 182.101 C 637.161 178.791, 605.367 163, 604.542 163 C 604.274 163, 601.680 161.925, 598.777 160.612 C 593.951 158.428, 585.842 155.174, 575.500 151.270 C 573.300 150.440, 570.600 149.400, 569.500 148.958 C 566.716 147.842, 555.121 143.989, 551.500 142.977 C 549.850 142.516, 546.025 141.405, 543 140.507 C 513.496 131.755, 482.304 125.701, 452.500 122.941 C 445.900 122.329, 440.350 121.418, 440.167 120.915 C 439.724 119.701, 364 119.696, 364 120.910 M 330 278.500 C 290.678 317.825, 258.054 350, 257.503 350.001 C 256.848 350.001, 256.606 339.563, 256.805 319.920 C 257.029 297.915, 256.794 289.457, 255.933 288.419 C 255.111 287.428, 252.528 287, 247.378 287 L 240 287 240 339 C 240 370.198, 240.370 391, 240.925 391 C 241.434 391, 277.760 355.221, 321.650 311.492 C 365.539 267.762, 401.792 232.099, 402.210 232.242 C 402.629 232.384, 470.028 299.432, 551.986 381.238 L 701 529.976 701 677.488 L 701 825 470.500 825 L 240 825 240 834 L 240 843 479 843 C 705.949 843, 718 842.912, 718.010 841.250 C 718.015 840.288, 718.010 771.496, 718 688.380 C 717.984 561.048, 718.199 537.080, 719.362 536.114 C 720.346 535.298, 728.908 535.045, 749.121 535.234 L 777.500 535.500 778 689 L 778.500 842.500 787 842.500 L 795.500 842.500 795.500 642 L 795.500 441.500 715.756 441 L 636.011 440.500 519.245 323.750 C 455.024 259.538, 402.258 207, 401.987 207 C 401.716 207, 369.322 239.175, 330 278.500 M 655.627 458.795 C 655.343 459.253, 665.192 469.701, 677.512 482.011 C 693.015 497.504, 700.085 503.941, 700.476 502.923 C 700.787 502.113, 700.919 491.787, 700.771 479.975 L 700.500 458.500 678.321 458.231 C 666.122 458.083, 655.910 458.337, 655.627 458.795 M 719.187 459.274 C 717.926 460.794, 717.625 514.775, 718.866 516.784 C 719.460 517.744, 726.300 517.970, 748.569 517.766 L 777.500 517.500 777.500 488 L 777.500 458.500 748.885 458.235 C 726.320 458.026, 720.041 458.246, 719.187 459.274 M 240 642 L 240 766.006 402.250 765.753 L 564.500 765.500 564.500 642 L 564.500 518.500 402.250 518.247 L 240 517.994 240 642 M 257.545 535.927 C 256.593 537.468, 256.795 593.195, 257.757 594.157 C 258.238 594.638, 271.427 594.912, 287.066 594.766 L 315.500 594.500 315.500 565 L 315.500 535.500 286.818 535.235 C 269.328 535.073, 257.906 535.343, 257.545 535.927 M 334.517 535.972 C 333.555 537.529, 333.796 593.196, 334.769 594.169 C 335.243 594.643, 348.427 594.912, 364.066 594.766 L 392.500 594.500 392.500 565 L 392.500 535.500 363.818 535.235 C 345.433 535.065, 334.914 535.330, 334.517 535.972 M 411.682 535.652 C 411.307 536.027, 411 549.533, 411 565.667 L 411 595 440.515 595 L 470.030 595 469.765 565.250 L 469.500 535.500 440.932 535.235 C 425.219 535.089, 412.057 535.277, 411.682 535.652 M 488.453 536.263 C 488.186 536.957, 488.088 550.345, 488.234 566.013 L 488.500 594.500 517.500 594.500 L 546.500 594.500 546.766 565.569 C 546.972 543.089, 546.749 536.458, 545.766 535.834 C 545.070 535.392, 531.998 535.024, 516.719 535.015 C 495.254 535.003, 488.827 535.287, 488.453 536.263 M 258.201 612.846 C 257.186 613.497, 256.902 619.858, 256.902 641.957 C 256.902 657.510, 257.100 670.434, 257.343 670.676 C 258.171 671.505, 314.351 671.049, 315.193 670.207 C 315.654 669.746, 315.912 656.573, 315.766 640.934 L 315.500 612.500 287.500 612.257 C 272.100 612.123, 258.915 612.388, 258.201 612.846 M 334.519 612.969 C 333.852 614.049, 333.641 669.974, 334.302 670.635 C 334.522 670.855, 347.706 671.056, 363.601 671.081 L 392.500 671.126 392.500 641.813 L 392.500 612.500 363.818 612.235 C 345.499 612.065, 334.914 612.331, 334.519 612.969 M 411.682 612.652 C 411.307 613.027, 411 626.308, 411 642.167 L 411 671 440.515 671 L 470.030 671 469.765 641.750 L 469.500 612.500 440.932 612.235 C 425.219 612.089, 412.057 612.277, 411.682 612.652 M 488.667 612.667 C 487.549 613.785, 487.875 670.998, 489 671.017 C 489.550 671.026, 502.150 671.034, 517 671.034 C 531.850 671.034, 544.675 671.026, 545.500 671.017 C 546.798 671.002, 547 667.115, 547 642.107 C 547 616.683, 546.810 613.141, 545.418 612.607 C 543.255 611.777, 489.500 611.834, 488.667 612.667 M 257.519 689.969 C 257.180 690.518, 256.901 703.688, 256.901 719.234 L 256.901 747.500 286.466 747.765 L 316.030 748.030 315.765 718.765 L 315.500 689.500 286.818 689.235 C 268.499 689.065, 257.914 689.331, 257.519 689.969 M 333.975 690 C 333.962 690.550, 333.940 703.712, 333.926 719.250 L 333.901 747.500 363.450 747.765 L 393 748.030 393 718.515 L 393 689 363.500 689 C 344.516 689, 333.991 689.356, 333.975 690 M 411 718.500 L 411 748 440.500 748 L 470 748 470 718.500 L 470 689 440.500 689 L 411 689 411 718.500 M 488 718.485 L 488 748 517.515 748 L 547.030 748 546.765 718.750 L 546.500 689.500 517.250 689.235 L 488 688.970 488 718.485 M 250 910.606 C 246.425 911.910, 242.713 912.982, 241.750 912.988 C 240.229 912.998, 240 914.054, 240 921.045 L 240 929.091 243.750 928.414 C 245.813 928.041, 248.345 927.300, 249.377 926.765 C 250.724 926.068, 251.497 926.176, 252.112 927.147 C 252.583 927.891, 252.976 945.731, 252.985 966.790 L 253 1005.081 261.250 1004.790 L 269.500 1004.500 269.760 957.065 C 269.964 919.780, 269.750 909.459, 268.760 908.830 C 266.360 907.307, 256.482 908.241, 250 910.606 M 325.892 910.354 C 318.536 913.380, 314.955 916.015, 311.583 920.880 C 304.499 931.102, 306.463 944.571, 316.184 952.434 L 319.500 955.116 316.500 957.308 C 314.850 958.514, 311.866 961.150, 309.870 963.166 C 303.253 969.848, 302.182 983.143, 307.600 991.330 C 314.496 1001.751, 324.335 1006.154, 340.741 1006.162 C 355.647 1006.169, 365.050 1002.615, 371.802 994.423 C 375.026 990.513, 378 982.894, 378 978.546 C 378 971.350, 371.557 960.845, 365.260 957.774 C 361.601 955.990, 361.436 954.447, 364.696 952.515 C 369.568 949.629, 373.139 943.562, 373.710 937.202 C 374.923 923.699, 368.812 915.529, 352.703 909.114 C 351.165 908.501, 345.765 908.011, 340.703 908.024 C 333.417 908.043, 330.332 908.528, 325.892 910.354 M 404.680 909.653 C 403.598 910.736, 403.893 922.816, 405.019 923.512 C 405.579 923.858, 415.938 924.095, 428.038 924.038 C 452.523 923.924, 452.939 924.045, 449.227 930.225 C 448.144 932.026, 445.456 936.875, 443.253 941 C 436.286 954.046, 429.781 966.283, 426.241 973 C 414.340 995.585, 411.628 1000.601, 410.860 1001.450 C 410.387 1001.973, 410 1003.001, 410 1003.736 C 410 1004.778, 412.112 1005.009, 419.588 1004.786 L 429.177 1004.500 436.935 989.500 C 441.203 981.250, 447.513 969.100, 450.959 962.500 C 474.176 918.032, 472.126 922.632, 471.798 915.748 L 471.500 909.500 438.430 909.237 C 420.241 909.092, 405.054 909.279, 404.680 909.653 M 502.420 910.348 C 502.130 911.105, 502.029 914.374, 502.196 917.612 L 502.500 923.500 521.750 923.772 C 536.186 923.975, 540.989 924.350, 540.954 925.272 C 540.929 925.947, 535.737 931.900, 529.415 938.500 C 518.292 950.113, 517.936 950.622, 518.371 954.288 C 518.618 956.372, 519.546 959.184, 520.433 960.538 C 521.925 962.815, 522.648 963, 530.063 963 C 536.159 963, 539.038 963.489, 542.079 965.040 C 552.516 970.365, 552.473 983.471, 542 989.217 C 539.204 990.751, 537.063 991.054, 531.356 990.726 C 523.806 990.291, 518.485 987.973, 512.698 982.601 C 511.158 981.170, 509.200 980, 508.347 980 C 505.903 980, 497.156 988.901, 497.701 990.834 C 498.353 993.147, 507.518 1000.209, 513.309 1002.862 C 515.954 1004.074, 521.679 1005.569, 526.033 1006.185 C 546.637 1009.099, 562.513 999.974, 566.422 982.972 C 568.738 972.899, 566.237 964.010, 559.269 957.549 C 555.644 954.187, 546.980 950, 543.650 950 C 542.193 950, 541.001 949.438, 541.003 948.750 C 541.004 948.063, 546.649 941.689, 553.546 934.586 L 566.087 921.672 565.793 915.586 L 565.500 909.500 534.224 909.236 C 508.416 909.018, 502.856 909.212, 502.420 910.348 M 329.880 925.435 C 319.890 932.224, 323.562 945.940, 336.147 948.845 C 344.920 950.870, 353.204 947.310, 356.445 940.121 C 358.805 934.889, 357.917 931.563, 352.882 926.773 C 348.997 923.077, 348.758 923, 341.190 923 C 334.652 923, 332.913 923.374, 329.880 925.435 M 333.479 964.394 C 322.016 967.986, 317.643 976.910, 323.552 984.657 C 326.832 988.957, 330.490 990.805, 337.308 991.606 C 351.931 993.325, 362.613 985.165, 359.825 974.405 C 358.709 970.099, 354.297 966.416, 348.068 964.591 C 341.689 962.722, 338.933 962.685, 333.479 964.394" stroke="none" fill="#000000" fill-rule="evenodd"/>
  </g>
  <g transform="translate(-852.332, 1097.331) scale(1.13960)">
    <path d="M 1048 405.626 C 1029.352 409.248, 1016.553 420.502, 1008.906 440 C 1006.842 445.262, 1007.145 465.123, 1009.386 471.500 C 1015.756 489.625, 1029.515 500.991, 1048.795 504.056 C 1063.819 506.445, 1080.749 502.022, 1093.770 492.307 L 1097.041 489.867 1096.770 469.683 L 1096.500 449.500 1076.500 449.500 L 1056.500 449.500 1056.207 456.718 L 1055.914 463.936 1067.707 464.218 L 1079.500 464.500 1079.500 473.428 L 1079.500 482.356 1074.500 484.923 C 1070.237 487.111, 1067.915 487.540, 1058.738 487.833 C 1048.184 488.171, 1047.866 488.115, 1042.238 484.958 C 1035.126 480.967, 1031.489 477.091, 1028.201 470 C 1026.041 465.342, 1025.646 463.045, 1025.624 455 C 1025.601 446.559, 1025.912 444.870, 1028.414 439.847 C 1031.750 433.149, 1035.253 429.110, 1040.590 425.808 C 1051.591 419.003, 1064.488 419.486, 1076.293 427.146 C 1079.478 429.213, 1082.628 430.670, 1083.293 430.383 C 1084.771 429.745, 1093 419.456, 1093 418.246 C 1093 416.158, 1082.137 409.898, 1074.119 407.367 C 1069.399 405.877, 1052.505 404.751, 1048 405.626 M 1166 406.506 C 1143.032 412.811, 1128 432.294, 1128 455.760 C 1128 462.064, 1128.437 464.190, 1131.685 473.687 C 1138.680 494.138, 1163.208 507.763, 1186.284 504.015 C 1190.712 503.296, 1195.497 502.101, 1196.917 501.360 C 1198.338 500.619, 1199.829 500.010, 1200.231 500.006 C 1200.632 500.003, 1203.393 498.444, 1206.366 496.543 C 1215.246 490.862, 1221.414 482.910, 1226.566 470.500 C 1229.073 464.462, 1228.822 445.290, 1226.144 438.210 C 1220.427 423.094, 1210.186 413.009, 1195 407.537 C 1188.483 405.188, 1172.827 404.632, 1166 406.506 M 1849 405.629 C 1838.138 407.644, 1829.242 413.685, 1825.058 421.886 C 1822.505 426.891, 1822.165 440.045, 1824.471 444.596 C 1828.631 452.805, 1835.837 457.478, 1850.500 461.476 C 1869.265 466.592, 1872.653 468.071, 1874.789 472.080 C 1876.865 475.976, 1875.638 481.752, 1872.056 484.950 C 1864.633 491.577, 1845.358 488.970, 1833.150 479.687 C 1831.308 478.286, 1829.251 477.350, 1828.580 477.608 C 1826.467 478.418, 1819.999 486.799, 1820.026 488.690 C 1820.052 490.548, 1827.782 496.398, 1833.420 498.827 C 1842.918 502.920, 1845.631 503.421, 1858.500 503.460 C 1870.765 503.498, 1871.823 503.341, 1877.224 500.690 C 1883.302 497.706, 1889.235 491.687, 1891.578 486.128 C 1892.376 484.235, 1893 479.501, 1893 475.338 C 1893 458.190, 1884.021 451.624, 1849.184 443.295 C 1847.911 442.991, 1845.323 441.284, 1843.434 439.503 C 1835.370 431.897, 1842.209 421, 1855.046 421 C 1861.734 421, 1869.513 423.305, 1875.380 427.026 C 1877.959 428.662, 1880.439 430, 1880.891 430 C 1881.904 430, 1890 419.288, 1890 417.946 C 1890 416.298, 1879.679 410.271, 1873.236 408.155 C 1867.127 406.150, 1853.724 404.753, 1849 405.629 M 1494.655 407.829 C 1493.745 408.835, 1493 410.383, 1493 411.270 C 1493 412.156, 1492.617 413.119, 1492.148 413.408 C 1491.680 413.698, 1490.482 416.087, 1489.487 418.717 C 1488.492 421.348, 1485.950 427.239, 1483.839 431.809 C 1481.727 436.379, 1480 440.303, 1480 440.530 C 1480 440.907, 1478.221 444.991, 1472.827 457 C 1471.715 459.475, 1470.174 462.962, 1469.403 464.750 C 1468.631 466.538, 1467.357 469.463, 1466.571 471.252 C 1465.785 473.041, 1464.178 476.752, 1463 479.500 C 1459.734 487.119, 1458.460 490.014, 1455.735 496 C 1454.359 499.025, 1453.432 501.837, 1453.675 502.250 C 1454.450 503.562, 1469.658 503.118, 1470.784 501.750 C 1471.351 501.063, 1473.480 496.450, 1475.517 491.500 C 1477.553 486.550, 1479.675 481.938, 1480.232 481.250 C 1480.987 480.319, 1486.834 480, 1503.155 480 L 1525.065 480 1528.096 486.750 C 1529.763 490.462, 1531.609 494.625, 1532.197 496 C 1535.402 503.486, 1534.610 503, 1543.610 503 C 1551.772 503, 1554.087 502.118, 1552.257 499.706 C 1551.753 499.043, 1550.309 496.025, 1549.047 493 C 1547.785 489.975, 1545.855 485.475, 1544.760 483 C 1541.926 476.600, 1540.442 473.197, 1538 467.500 C 1535.516 461.704, 1534.082 458.418, 1531.019 451.500 C 1529.802 448.750, 1528.208 445.150, 1527.477 443.500 C 1526.747 441.850, 1524.991 437.899, 1523.575 434.720 C 1522.159 431.542, 1521 428.762, 1521 428.543 C 1521 428.193, 1516.699 418.663, 1512.293 409.250 C 1510.783 406.023, 1510.720 406, 1503.541 406 C 1497.806 406, 1495.968 406.378, 1494.655 407.829 M 1251.422 408.344 C 1251.133 409.095, 1251.033 412.588, 1251.199 416.105 L 1251.500 422.500 1266.500 423 L 1281.500 423.500 1282 463 L 1282.500 502.500 1290.500 502.500 L 1298.500 502.500 1299 463 L 1299.500 423.500 1314.500 423 L 1329.500 422.500 1329.500 415 L 1329.500 407.500 1290.723 407.238 C 1258.674 407.022, 1251.855 407.214, 1251.422 408.344 M 1360.705 407.628 C 1360.317 408.016, 1360 429.633, 1360 455.667 L 1360 503 1393.393 503 C 1431.096 503, 1428 503.765, 1428 494.453 C 1428 490.071, 1427.623 488.869, 1425.974 487.986 C 1424.664 487.285, 1415.976 486.957, 1401.380 487.057 C 1388.968 487.142, 1378.410 486.810, 1377.918 486.318 C 1377.426 485.826, 1376.906 467.891, 1376.762 446.462 L 1376.500 407.500 1368.955 407.212 C 1364.805 407.053, 1361.093 407.241, 1360.705 407.628 M 1583 455.040 L 1583 503.081 1591.250 502.790 L 1599.500 502.500 1599.764 470.250 C 1599.991 442.502, 1600.235 438, 1601.514 438 C 1602.331 438, 1603 438.637, 1603 439.417 C 1603 440.196, 1603.375 440.983, 1603.834 441.167 C 1604.293 441.350, 1606.205 443.581, 1608.084 446.125 C 1610.919 449.964, 1638.716 486.017, 1642.683 491 C 1643.340 491.825, 1645.715 494.863, 1647.962 497.750 L 1652.047 503 1658.916 503 C 1664.258 503, 1665.921 502.648, 1666.393 501.418 C 1667.321 499, 1667.085 409.682, 1666.147 408.203 C 1665.563 407.284, 1663.166 406.992, 1657.912 407.203 L 1650.500 407.500 1650.236 438.821 C 1650.012 465.319, 1649.752 470.092, 1648.546 469.821 C 1647.762 469.644, 1641.581 462.285, 1634.810 453.467 C 1628.040 444.649, 1621.279 435.874, 1619.788 433.967 C 1618.296 432.060, 1614.101 426.675, 1610.465 422 C 1606.829 417.325, 1602.712 412.038, 1601.317 410.250 C 1598.835 407.072, 1598.603 407, 1590.889 407 L 1583 407 1583 455.040 M 1705.980 408.149 C 1705.963 409.298, 1705.976 496.225, 1705.994 501.250 C 1706 502.864, 1707.734 503, 1728.372 503 C 1749.509 503, 1751.166 502.862, 1758.380 500.507 C 1774.983 495.088, 1785.396 485.037, 1790.450 469.557 C 1798.659 444.408, 1785.926 419.271, 1760 409.447 C 1753.873 407.125, 1706.012 405.975, 1705.980 408.149 M 1169.416 422.487 C 1160.830 425.199, 1154.379 430.499, 1150.472 438.053 C 1148.412 442.039, 1146 451.176, 1146 455 C 1146 463.385, 1151.326 475.572, 1157.123 480.450 C 1163.810 486.077, 1169.240 488, 1178.439 488 C 1185.554 488, 1187.856 487.569, 1192.510 485.365 C 1199.048 482.270, 1204.271 476.655, 1207.732 469 C 1211.084 461.587, 1211.243 448.916, 1208.076 441.617 C 1201.172 425.707, 1184.829 417.620, 1169.416 422.487 M 1723 455.111 L 1723 487.222 1737.250 486.853 C 1750.435 486.510, 1751.928 486.273, 1757.224 483.680 C 1762.787 480.957, 1768.880 475.085, 1771.418 470 C 1772.105 468.625, 1773.269 464.888, 1774.006 461.696 C 1775.114 456.893, 1775.121 454.762, 1774.043 449.340 C 1772.286 440.499, 1770.633 437.383, 1764.580 431.500 C 1757.298 424.422, 1752.537 423, 1736.116 423 L 1723 423 1723 455.111 M 1500.417 432.781 C 1499.546 434.827, 1498.019 438.525, 1497.024 441 C 1495.047 445.916, 1490.517 456.220, 1488.810 459.683 C 1486.442 464.487, 1487.810 465, 1503 465 C 1519.418 465, 1519.597 464.879, 1515.612 456.461 C 1514.175 453.427, 1513 450.765, 1513 450.546 C 1513 450.326, 1511.443 446.775, 1509.539 442.654 C 1507.636 438.534, 1505.795 434.033, 1505.449 432.653 C 1504.420 428.551, 1502.194 428.608, 1500.417 432.781" stroke="none" fill="#000000" fill-rule="evenodd"/>
  </g>
  <g transform="translate(-1052.707, 1097.331) scale(1.13960)">
    <path d="M 1082.500 570.770 L 1073.500 571.041 1068.131 576.770 C 1045.711 600.695, 1029.793 617, 1028.856 617 C 1028.385 617, 1028 606.632, 1028 593.960 L 1028 570.919 1019.750 571.210 L 1011.500 571.500 1011.500 619 L 1011.500 666.500 1019.750 666.790 C 1027.103 667.049, 1028.006 666.886, 1028.055 665.290 C 1028.086 664.306, 1028.062 658.189, 1028.003 651.697 L 1027.895 639.895 1035.117 632.447 C 1039.088 628.351, 1042.686 625, 1043.111 625 C 1043.536 625, 1047.701 630.063, 1052.367 636.250 C 1069.896 659.498, 1073.903 664.674, 1075.205 665.755 C 1075.941 666.366, 1080.583 666.963, 1085.521 667.082 C 1093.172 667.267, 1094.548 667.056, 1094.823 665.651 C 1095.001 664.745, 1094.508 663.365, 1093.729 662.586 C 1092.949 661.806, 1088.979 656.743, 1084.906 651.334 C 1080.833 645.925, 1077.244 641.275, 1076.930 641 C 1076.617 640.725, 1074.398 637.800, 1072 634.500 C 1069.602 631.200, 1067.372 628.275, 1067.045 628 C 1065.569 626.761, 1056 613.154, 1056 612.295 C 1056 611.766, 1064.213 602.876, 1074.250 592.539 C 1084.287 582.202, 1092.637 573.169, 1092.805 572.465 C 1093.249 570.606, 1092.436 570.472, 1082.500 570.770 M 1162.734 571.750 C 1161.867 572.712, 1160.271 575.750, 1159.187 578.500 C 1158.103 581.250, 1155.769 586.650, 1154 590.500 C 1152.231 594.350, 1149.982 599.528, 1149.003 602.006 C 1148.023 604.484, 1145.597 610.029, 1143.611 614.329 C 1141.625 618.628, 1140 622.343, 1140 622.584 C 1140 622.825, 1139.134 624.929, 1138.076 627.261 C 1136.153 631.498, 1131.993 640.841, 1129.511 646.500 C 1124.017 659.027, 1122.804 661.712, 1121.927 663.291 C 1121.380 664.276, 1121.199 665.513, 1121.525 666.041 C 1122.429 667.504, 1137.566 667.248, 1138.710 665.750 C 1139.235 665.063, 1141.368 660.450, 1143.450 655.500 C 1145.532 650.550, 1147.687 645.938, 1148.240 645.250 C 1148.988 644.319, 1154.800 644, 1171.009 644 L 1192.772 644 1194.315 647.252 C 1195.164 649.041, 1196.822 652.752, 1198 655.500 C 1199.178 658.248, 1200.836 661.959, 1201.685 663.748 L 1203.228 667 1211.614 667 C 1218.183 667, 1220 666.693, 1220 665.583 C 1220 664.142, 1218.406 660.195, 1211.689 644.998 C 1210.838 643.072, 1209.178 639.248, 1208 636.500 C 1205.516 630.704, 1204.082 627.418, 1201.019 620.500 C 1199.802 617.750, 1198.208 614.150, 1197.477 612.500 C 1196.747 610.850, 1194.991 606.899, 1193.575 603.720 C 1192.159 600.542, 1191 597.762, 1191 597.543 C 1191 597.325, 1189.375 593.628, 1187.389 589.329 C 1185.403 585.029, 1182.892 579.263, 1181.809 576.515 C 1180.726 573.767, 1179.313 571.184, 1178.670 570.775 C 1178.026 570.365, 1174.532 570.024, 1170.905 570.015 C 1165.877 570.004, 1163.935 570.416, 1162.734 571.750 M 1476.666 571.675 C 1470.528 573.795, 1462.848 580.664, 1460.115 586.478 C 1457.587 591.857, 1457.232 602.931, 1459.420 608.128 C 1463.280 617.291, 1470.421 621.529, 1491.500 627.165 C 1506.358 631.138, 1511 634.355, 1511 640.679 C 1511 645.502, 1508.994 648.452, 1503.974 651.013 C 1495.681 655.244, 1481.822 652.635, 1469.642 644.551 C 1466.257 642.304, 1463.539 641.096, 1463.157 641.670 C 1462.796 642.213, 1460.813 644.693, 1458.750 647.182 C 1456.688 649.670, 1455 652.352, 1455 653.141 C 1455 655.460, 1467.049 662.710, 1475.473 665.459 C 1486.337 669.006, 1501.787 669.068, 1510.222 665.599 C 1517.633 662.551, 1522.189 658.669, 1525.407 652.658 C 1527.574 648.611, 1528 646.509, 1528 639.868 C 1528 630.780, 1526.294 626.395, 1520.826 621.428 C 1517.561 618.462, 1507.304 613, 1505 613 C 1504.382 613, 1501.766 612.366, 1499.188 611.592 C 1496.610 610.817, 1492.016 609.458, 1488.981 608.571 C 1485.946 607.685, 1481.997 606.068, 1480.206 604.979 C 1473.737 601.045, 1473.501 593.007, 1479.715 588.269 C 1482.996 585.768, 1484.130 585.501, 1491.427 585.513 C 1498.927 585.524, 1500.115 585.831, 1508.003 589.787 L 1516.500 594.049 1519.713 590.274 C 1524.648 584.476, 1525.557 582.376, 1523.964 580.456 C 1522.557 578.761, 1514.923 574.547, 1509 572.195 C 1503.393 569.969, 1482.575 569.634, 1476.666 571.675 M 1907.711 571.661 C 1901.842 573.690, 1894.666 579.840, 1891.713 585.372 C 1889.930 588.713, 1889.509 591.152, 1889.508 598.168 C 1889.506 606.199, 1889.728 607.154, 1892.534 611.168 C 1897.635 618.463, 1904.973 622.389, 1922 626.934 C 1935.041 630.415, 1939.230 632.609, 1941.606 637.204 C 1944.241 642.300, 1940.948 648.741, 1934.285 651.525 C 1925.199 655.322, 1907.339 650.983, 1898.621 642.862 C 1896.057 640.473, 1895.401 640.518, 1893.053 643.250 C 1886.925 650.378, 1886.002 651.598, 1886.001 652.570 C 1885.998 655.520, 1899.477 663.547, 1909.154 666.358 C 1917.045 668.650, 1933.972 668.590, 1940.018 666.249 C 1950.348 662.249, 1956.449 655.972, 1958.962 646.757 C 1961.413 637.772, 1958.490 626.814, 1952.153 621.227 C 1948.425 617.941, 1938.749 613.598, 1930.500 611.508 C 1916.214 607.890, 1911.701 606.056, 1908.723 602.659 C 1904.666 598.031, 1905.791 591.712, 1911.382 587.724 C 1913.891 585.934, 1915.866 585.500, 1921.500 585.500 C 1929.449 585.500, 1935.424 587.157, 1942.133 591.221 C 1944.681 592.764, 1947.381 593.788, 1948.133 593.496 C 1948.885 593.204, 1950.517 591.286, 1951.760 589.233 C 1953.004 587.180, 1954.560 584.739, 1955.218 583.809 C 1957.287 580.887, 1953.204 577.811, 1939.500 571.963 C 1934.612 569.878, 1913.453 569.676, 1907.711 571.661 M 2121.557 572.223 C 2120.701 573.445, 2120 574.782, 2120 575.193 C 2120 575.604, 2118.841 578.542, 2117.425 581.720 C 2114.843 587.516, 2114.085 589.226, 2109.983 598.500 C 2108.766 601.250, 2106.697 605.875, 2105.385 608.777 C 2104.073 611.680, 2103 614.235, 2103 614.454 C 2103 614.674, 2101.375 618.372, 2099.389 622.671 C 2097.403 626.971, 2094.978 632.519, 2094 635 C 2093.022 637.481, 2090.681 642.884, 2088.799 647.006 C 2086.916 651.128, 2084.769 656.075, 2084.027 658 C 2083.286 659.925, 2082.302 661.928, 2081.840 662.450 C 2081.378 662.973, 2081 664.210, 2081 665.200 C 2081 666.789, 2081.975 667, 2089.324 667 L 2097.649 667 2100.432 660.750 C 2101.963 657.313, 2103.863 652.925, 2104.655 651 C 2107.525 644.024, 2105.668 644.525, 2129.731 644.231 C 2155.208 643.920, 2152.247 642.632, 2157.941 656.500 C 2159.748 660.900, 2161.681 665.063, 2162.236 665.750 C 2162.898 666.570, 2166.125 667, 2171.622 667 C 2180.963 667, 2181.401 666.584, 2178.179 660.780 C 2177.177 658.976, 2174.869 653.900, 2173.049 649.500 C 2171.230 645.100, 2168.401 638.575, 2166.762 635 C 2165.124 631.425, 2162.982 626.472, 2162.003 623.994 C 2161.023 621.516, 2158.597 615.971, 2156.611 611.671 C 2154.625 607.372, 2153 603.674, 2153 603.454 C 2153 603.235, 2151.821 600.455, 2150.380 597.277 C 2148.939 594.100, 2147.181 590.150, 2146.473 588.500 C 2145.765 586.850, 2143.584 582.013, 2141.626 577.750 L 2138.067 570 2130.590 570 C 2123.998 570, 2122.929 570.263, 2121.557 572.223 M 1250.622 572.543 C 1249.696 574.955, 1249.899 664.292, 1250.833 665.764 C 1251.459 666.750, 1258.886 666.970, 1284.568 666.764 L 1317.500 666.500 1317.500 659 L 1317.500 651.500 1292.761 651.233 L 1268.023 650.965 1267.761 611.233 L 1267.500 571.500 1259.372 571.212 C 1252.627 570.972, 1251.138 571.199, 1250.622 572.543 M 1348 619 L 1348 667 1356.500 667 L 1365 667 1365 653.225 L 1365 639.450 1372.250 632.256 C 1376.340 628.197, 1379.960 625.376, 1380.556 625.781 C 1381.137 626.176, 1386.537 633.025, 1392.556 641 C 1398.575 648.975, 1403.749 655.725, 1404.053 656 C 1404.357 656.275, 1405.909 658.300, 1407.502 660.500 C 1412.426 667.302, 1412.968 667.536, 1422.988 667.179 C 1427.945 667.002, 1432 666.453, 1432 665.958 C 1432 665.177, 1420.595 649.351, 1419.058 648 C 1418.745 647.725, 1416.488 644.812, 1414.043 641.527 C 1411.598 638.241, 1409.039 634.866, 1408.356 634.027 C 1400.811 624.751, 1393 613.741, 1393 612.382 C 1393 611.447, 1397.914 605.691, 1403.920 599.591 C 1425.570 577.603, 1430 572.910, 1430 571.963 C 1430 571.411, 1425.801 571, 1420.164 571 L 1410.328 571 1394.414 587.742 C 1385.661 596.951, 1375.852 607.290, 1372.615 610.718 C 1369.378 614.146, 1366.341 616.711, 1365.865 616.417 C 1365.389 616.123, 1365 605.784, 1365 593.441 L 1365 571 1356.500 571 L 1348 571 1348 619 M 1555.208 578.750 L 1555.500 586.500 1570 587 L 1584.500 587.500 1585 627 L 1585.500 666.500 1593.750 666.790 C 1598.287 666.950, 1602.099 666.950, 1602.221 666.790 C 1602.342 666.631, 1602.680 648.725, 1602.971 627 L 1603.500 587.500 1618 587 L 1632.500 586.500 1632.792 578.750 L 1633.084 571 1594 571 L 1554.916 571 1555.208 578.750 M 1663 619.013 L 1663 667.025 1698.750 666.763 L 1734.500 666.500 1734.799 659.590 C 1735.009 654.743, 1734.711 652.428, 1733.799 651.838 C 1733.085 651.375, 1721.141 651.026, 1707.259 651.062 C 1693.376 651.099, 1681.563 650.848, 1681.009 650.505 C 1679.925 649.836, 1679.582 630.252, 1680.607 627.582 C 1681.137 626.202, 1684.198 626, 1704.607 626 L 1728 626 1728 618.518 L 1728 611.036 1704.250 610.768 L 1680.500 610.500 1680.208 600.500 C 1679.737 584.398, 1676.652 586.078, 1707.265 585.767 L 1733.500 585.500 1733.794 578.250 L 1734.088 571 1698.544 571 L 1663 571 1663 619.013 M 1769.705 571.628 C 1769.317 572.016, 1769 593.151, 1769 618.595 C 1769 655.598, 1769.264 665.122, 1770.321 666.179 C 1771.269 667.126, 1773.601 667.359, 1778.571 667 L 1785.500 666.500 1785.764 633.750 C 1785.909 615.737, 1786.278 601, 1786.585 601 C 1787.551 601, 1789.109 602.925, 1808.442 628 C 1832.988 659.837, 1833.005 659.858, 1836.411 663.709 C 1839.167 666.826, 1839.683 667, 1846.161 667 L 1853 667 1853 619 L 1853 571 1844.500 571 L 1836 571 1836 602.500 C 1836 627.074, 1835.725 633.983, 1834.750 633.924 C 1834.063 633.882, 1829.675 628.674, 1825 622.352 C 1820.325 616.029, 1815.825 610.101, 1815 609.178 C 1813.476 607.472, 1806.140 597.991, 1802.500 593.021 C 1801.400 591.519, 1798.925 588.331, 1797 585.937 C 1795.075 583.543, 1791.675 579.315, 1789.444 576.542 L 1785.389 571.500 1777.899 571.212 C 1773.780 571.053, 1770.093 571.241, 1769.705 571.628 M 1993.458 572.250 C 1993.194 572.938, 1993.096 594.425, 1993.239 620 L 1993.500 666.500 2002 666.500 L 2010.500 666.500 2010.772 647.268 L 2011.043 628.036 2034.772 627.768 L 2058.500 627.500 2058.794 620.250 C 2059.013 614.847, 2058.758 612.991, 2057.794 612.966 C 2057.082 612.948, 2047.050 612.931, 2035.500 612.929 C 2023.950 612.927, 2013.713 612.687, 2012.750 612.395 C 2011.206 611.928, 2011 610.405, 2011 599.433 C 2011 590.179, 2011.320 586.988, 2012.250 586.952 C 2012.938 586.926, 2024.525 586.931, 2038 586.963 C 2051.475 586.994, 2063.110 586.623, 2063.855 586.136 C 2065.058 585.351, 2065.419 581.377, 2065.071 572.750 C 2065.005 571.117, 2062.614 571, 2029.469 571 C 2001.966 571, 1993.829 571.282, 1993.458 572.250 M 2210.240 618.750 L 2210.500 666.500 2225.250 666.777 L 2240 667.053 2240 659.527 L 2240 652 2234.622 652 C 2231.246 652, 2228.815 651.482, 2228.089 650.607 C 2227.323 649.685, 2227.028 645.374, 2227.216 637.857 L 2227.500 626.500 2233.750 626.202 L 2240 625.905 2240 618.500 L 2240 611.095 2233.750 610.798 L 2227.500 610.500 2227.500 598.500 L 2227.500 586.500 2233.750 586.202 L 2240 585.905 2240 578.452 L 2240 571 2224.990 571 L 2209.981 571 2210.240 618.750 M 1168 597.500 C 1166.900 600.066, 1166 602.327, 1166 602.524 C 1166 602.721, 1164.200 606.760, 1162 611.500 C 1159.800 616.240, 1157.986 620.654, 1157.968 621.309 C 1157.951 621.964, 1157.290 623.354, 1156.500 624.397 C 1155.710 625.441, 1155.301 626.678, 1155.591 627.147 C 1156.289 628.276, 1186 628.254, 1186 627.124 C 1186 626.250, 1183.076 619.389, 1178.276 609 C 1176.878 605.975, 1174.933 601.263, 1173.954 598.529 C 1172.975 595.795, 1171.685 593.395, 1171.087 593.196 C 1170.489 592.996, 1169.100 594.933, 1168 597.500 M 2128.378 594.750 C 2128.070 595.712, 2127.440 597.400, 2126.977 598.500 C 2122.324 609.556, 2121.461 611.566, 2117.585 620.374 C 2116.163 623.605, 2115 626.643, 2115 627.124 C 2115 628.118, 2144.321 628.346, 2145.307 627.360 C 2145.659 627.008, 2145.324 625.545, 2144.563 624.110 C 2143.207 621.552, 2142.321 619.580, 2138 609.500 C 2136.822 606.752, 2135.279 603.153, 2134.570 601.502 C 2133.861 599.851, 2132.777 597.263, 2132.162 595.750 C 2130.888 592.619, 2129.202 592.173, 2128.378 594.750" stroke="none" fill="#000000" fill-rule="evenodd"/>
  </g>
  <g transform="translate(-820.568, 1097.331) scale(1.13960)">
    <path d="M 1387.500 734.968 C 1378.682 737.540, 1377.100 738.314, 1370.486 743.290 C 1358.132 752.585, 1350.951 767.501, 1351.036 783.693 C 1351.126 801.003, 1357.505 813.771, 1371 823.655 C 1377.051 828.087, 1379.670 829.276, 1388.299 831.503 C 1403.223 835.356, 1423.298 831.051, 1436.771 821.109 L 1441.041 817.958 1440.771 797.729 L 1440.500 777.500 1420.500 777.500 L 1400.500 777.500 1400.500 785 L 1400.500 792.500 1412.288 792.782 L 1424.077 793.064 1423.788 801.770 L 1423.500 810.476 1419.129 812.762 C 1405.604 819.835, 1387.460 817.385, 1378.166 807.232 C 1371.170 799.590, 1367.925 787.891, 1369.818 777.141 C 1374.473 750.717, 1400.001 741.403, 1424.120 757.330 L 1426.740 759.060 1431.870 753.356 C 1434.692 750.219, 1437 747.319, 1437 746.910 C 1437 746.502, 1435.313 744.839, 1433.250 743.215 C 1421.756 734.164, 1402.284 730.654, 1387.500 734.968 M 1497.284 734.495 C 1486.769 737.064, 1477.151 745.184, 1474.835 753.447 C 1472.130 763.098, 1474.103 772.926, 1479.928 778.809 C 1484.925 783.857, 1490.406 786.457, 1503.721 790.098 C 1522.706 795.289, 1527 798.033, 1527 804.975 C 1527 813.178, 1518.889 817.839, 1506.610 816.692 C 1497.785 815.868, 1491.815 813.349, 1482.344 806.451 C 1479.948 804.706, 1479.276 805.183, 1472.938 813.112 L 1470.050 816.724 1473.498 819.862 C 1475.395 821.588, 1477.193 823, 1477.493 823 C 1477.794 823, 1479.718 824.024, 1481.770 825.276 C 1488.474 829.367, 1502.082 833.034, 1510.299 832.964 C 1523.604 832.852, 1537.288 825.675, 1541.474 816.614 C 1547.540 803.486, 1544.757 790.908, 1534.077 783.171 C 1530.564 780.626, 1524.787 778.500, 1505.049 772.485 C 1491.229 768.274, 1487.178 761.195, 1494.279 753.666 C 1498.331 749.369, 1504.257 748.200, 1513.132 749.946 C 1518.472 750.997, 1526.761 754.643, 1529.450 757.124 C 1529.973 757.606, 1530.971 758, 1531.668 758 C 1533.032 758, 1541 747.780, 1541 746.030 C 1541 744.768, 1530.674 738, 1528.748 738 C 1528.007 738, 1526.973 737.595, 1526.450 737.099 C 1525.122 735.840, 1510.546 732.977, 1506.143 733.111 C 1504.139 733.171, 1500.153 733.795, 1497.284 734.495 M 1011.458 736.250 C 1011.194 736.938, 1011.096 758.425, 1011.239 784 L 1011.500 830.500 1039.500 830.500 C 1069.216 830.500, 1072.510 830.087, 1080 825.420 C 1087.843 820.533, 1091 814.510, 1091 804.433 C 1091 794.554, 1086.721 787.468, 1078.358 783.499 C 1076.511 782.623, 1075 781.464, 1075 780.923 C 1075 780.382, 1076.646 778.494, 1078.657 776.728 C 1083.563 772.421, 1085.951 766.850, 1085.978 759.651 C 1086.021 748.264, 1079.457 740.292, 1066.991 736.590 C 1059.970 734.505, 1012.239 734.213, 1011.458 736.250 M 1123.667 735.667 C 1123.300 736.033, 1123 750.186, 1123 767.118 C 1123 798.835, 1123.392 802.803, 1127.468 812.353 C 1129.781 817.772, 1137.267 825.433, 1142.810 828.055 C 1163.469 837.826, 1188.754 832.281, 1198.738 815.790 C 1205.132 805.229, 1205.449 802.955, 1205.476 767.500 L 1205.500 735.500 1197 735.500 L 1188.500 735.500 1187.994 768 C 1187.442 803.482, 1187.245 804.725, 1181.332 810.050 C 1176.435 814.459, 1175.410 814.992, 1169.842 816.021 C 1158.227 818.169, 1148.167 813.688, 1143.553 804.313 L 1141 799.126 1141 768.645 C 1141 751.880, 1140.727 737.452, 1140.393 736.582 C 1139.912 735.328, 1138.183 735, 1132.060 735 C 1127.810 735, 1124.033 735.300, 1123.667 735.667 M 1243.486 736.178 C 1243.207 736.905, 1243.096 758.425, 1243.239 784 L 1243.500 830.500 1252 830.500 L 1260.500 830.500 1260.775 814.250 L 1261.050 798 1271.293 798 L 1281.537 798 1293.305 814.500 L 1305.072 831 1314.536 831 C 1322.071 831, 1324 830.709, 1324 829.571 C 1324 828.786, 1323.413 827.548, 1322.695 826.821 C 1321.977 826.095, 1319.390 822.630, 1316.945 819.122 C 1314.500 815.613, 1311.486 811.338, 1310.246 809.622 C 1309.007 807.905, 1306.888 804.850, 1305.537 802.834 C 1304.186 800.818, 1302.613 798.879, 1302.041 798.525 C 1299.663 797.056, 1301.033 794.144, 1304.666 792.945 C 1309.179 791.456, 1316.551 784.807, 1318.969 780.045 C 1322.069 773.938, 1323.215 766.109, 1321.909 759.943 C 1319.436 748.260, 1314.104 742.149, 1302 737.119 C 1297.025 735.052, 1244.243 734.203, 1243.486 736.178 M 1568.736 735.714 C 1568.360 736.407, 1594.297 799.960, 1600.595 813.777 C 1601.918 816.680, 1603 819.691, 1603 820.468 C 1603 821.246, 1603.400 822.129, 1603.889 822.432 C 1604.378 822.734, 1605.088 824.223, 1605.467 825.741 C 1606.718 830.753, 1608.716 832, 1615.500 832 C 1620.227 832, 1622.081 831.568, 1623.345 830.171 C 1624.255 829.165, 1625 827.996, 1625 827.572 C 1625 827.149, 1625.675 825.272, 1626.500 823.401 C 1627.838 820.368, 1629.378 816.733, 1631.966 810.500 C 1632.422 809.400, 1633.547 806.700, 1634.466 804.500 C 1635.384 802.300, 1636.509 799.600, 1636.966 798.500 C 1638.907 793.824, 1641.195 788.360, 1641.990 786.500 C 1642.461 785.400, 1646.988 774.375, 1652.050 762 C 1657.113 749.625, 1661.686 738.957, 1662.214 738.294 C 1664.123 735.891, 1661.783 735, 1653.563 735 C 1644.580 735, 1644.202 735.196, 1642.018 741 C 1641.293 742.925, 1640.154 745.850, 1639.486 747.500 C 1638.818 749.150, 1637.482 752.525, 1636.516 755 C 1635.551 757.475, 1634.408 760.400, 1633.978 761.500 C 1633.547 762.600, 1631.973 766.650, 1630.480 770.500 C 1628.988 774.350, 1627.383 778.400, 1626.913 779.500 C 1626.444 780.600, 1624.683 785.100, 1623 789.500 C 1621.317 793.900, 1619.526 798.400, 1619.021 799.500 C 1618.516 800.600, 1617.967 802.363, 1617.802 803.417 C 1617.355 806.254, 1615.162 806.499, 1614.121 803.829 C 1613.622 802.548, 1611.989 798.350, 1610.493 794.500 C 1608.997 790.650, 1607.216 786.150, 1606.536 784.500 C 1605.856 782.850, 1604.737 779.925, 1604.049 778 C 1603.361 776.075, 1602.407 773.600, 1601.929 772.500 C 1601.451 771.400, 1599.683 766.900, 1598 762.500 C 1596.317 758.100, 1594.553 753.600, 1594.081 752.500 C 1593.608 751.400, 1591.865 747.125, 1590.207 743 L 1587.192 735.500 1578.178 735.214 C 1573.220 735.056, 1568.971 735.281, 1568.736 735.714 M 1693 783 L 1693 831 1701.500 831 L 1710 831 1710 783 L 1710 735 1701.500 735 L 1693 735 1693 783 M 1749.622 736.543 C 1748.684 738.986, 1748.905 828.302, 1749.852 829.795 C 1750.439 830.720, 1752.932 831.006, 1758.587 830.795 L 1766.500 830.500 1767 816.491 L 1767.500 802.481 1773 796.657 C 1781.403 787.759, 1781.027 787.757, 1787.709 796.734 C 1790.888 801.005, 1793.748 804.725, 1794.065 805 C 1794.381 805.275, 1796.597 808.171, 1798.988 811.435 C 1801.380 814.700, 1803.908 818.075, 1804.607 818.935 C 1805.306 819.796, 1807.715 822.862, 1809.962 825.750 L 1814.047 831 1823.523 831 C 1829.719 831, 1833 830.621, 1833 829.906 C 1833 828.859, 1826.352 819.524, 1816.226 806.352 C 1798.769 783.645, 1793.863 776.927, 1794.161 776.144 C 1794.348 775.656, 1802.600 766.832, 1812.500 756.536 C 1822.400 746.239, 1830.645 737.182, 1830.823 736.408 C 1831.084 735.271, 1829.251 735, 1821.296 735 C 1812.307 735, 1811.279 735.197, 1809.554 737.250 C 1807.524 739.666, 1776.711 772.289, 1771.202 777.857 C 1769.375 779.703, 1767.658 780.991, 1767.387 780.720 C 1767.116 780.449, 1766.805 770.164, 1766.697 757.864 L 1766.500 735.500 1758.372 735.212 C 1751.627 734.972, 1750.138 735.199, 1749.622 736.543 M 1029.216 750.766 C 1028.267 751.427, 1028.006 754.647, 1028.216 763.080 L 1028.500 774.500 1043.248 774.777 C 1055.462 775.006, 1058.555 774.766, 1061.248 773.379 C 1067.211 770.308, 1068.645 767.485, 1068.014 760.060 C 1067.751 756.964, 1065.312 753.710, 1062.044 752.099 C 1058.986 750.591, 1031.095 749.459, 1029.216 750.766 M 1261 766.393 C 1261 779.507, 1261.234 781.876, 1262.582 782.393 C 1265.149 783.378, 1285.116 783.039, 1290 781.926 C 1304.148 778.705, 1309.314 766.100, 1300.559 756.163 C 1296.735 751.822, 1292.885 751, 1276.378 751 L 1261 751 1261 766.393 M 1028.471 791.214 C 1028.174 791.989, 1028.059 797.770, 1028.215 804.061 L 1028.500 815.500 1046 815.465 C 1064.652 815.428, 1067.056 814.913, 1071.502 809.995 C 1074.203 807.009, 1074.231 798.088, 1071.549 795.407 C 1067.230 791.087, 1065.073 790.635, 1046.756 790.214 C 1032.147 789.878, 1028.916 790.055, 1028.471 791.214" stroke="none" fill="#000000" fill-rule="evenodd"/>
  </g>
</svg>
