<svg xmlns="http://www.w3.org/2000/svg" width="3208" height="1199" viewBox="0 0 3208 1199" version="1.1">
	<path d="M 954 226.657 C 952.075 226.842, 945.325 227.486, 939 228.087 C 877.030 233.979, 813.028 258.366, 759.602 296.445 C 723.594 322.109, 688.723 358.598, 664.431 396.032 C 594.483 503.822, 584.582 638.383, 638.017 755.037 C 656.224 794.784, 680.293 829.490, 711.783 861.399 C 740.655 890.656, 770.772 912.758, 807.500 931.642 C 879.818 968.826, 961.465 981.324, 1041.500 967.460 C 1195.752 940.740, 1318.251 819.150, 1345.903 665.315 C 1353.374 623.752, 1353.374 575.248, 1345.903 533.685 C 1313.924 355.782, 1156.183 224.610, 976.089 226.160 C 965.865 226.248, 955.925 226.472, 954 226.657 M 948 240.089 C 843.228 249.064, 745.576 304.304, 685.155 388.774 C 649.075 439.216, 627.717 493.636, 619.328 556.500 C 616.875 574.883, 616.875 624.117, 619.328 642.500 C 627.717 705.364, 649.075 759.784, 685.155 810.226 C 705.778 839.058, 732.189 865.845, 762.237 888.406 C 802.505 918.641, 854.114 941.991, 903.568 952.348 C 1022.987 977.359, 1146.805 940.403, 1233 854.021 C 1334.678 752.122, 1366.120 601.799, 1313.740 468 C 1266.729 347.912, 1156.926 260.990, 1029 242.592 C 1004.708 239.099, 971.528 238.073, 948 240.089 M 924 344.500 C 894.579 373.925, 870.168 398, 869.754 398 C 869.339 398, 869 387.194, 869 373.987 L 869 349.974 834.250 350.237 L 799.500 350.500 799 410.381 L 798.500 470.262 769.740 498.381 L 740.980 526.500 740.990 645.750 L 741 765 977.500 765 L 1214 765 1214 650.500 L 1214 536 1236.500 536 L 1259 536 1259 650.500 L 1259 765 1265.503 765 L 1272.007 765 1271.753 615.250 L 1271.500 465.500 1211.990 465.242 L 1152.480 464.984 1065.492 377.992 C 1017.649 330.147, 978.277 291, 977.999 291 C 977.721 291, 953.421 315.075, 924 344.500 M 865.748 420.752 L 754 532.503 754 642.252 L 754 752 976.500 752 C 1098.875 752, 1199.338 752.112, 1199.750 752.250 C 1200.162 752.388, 1200.614 702.778, 1200.754 642.006 L 1201.009 531.512 1089.756 420.256 C 1028.567 359.065, 978.277 309, 978 309 C 977.723 309, 927.210 359.288, 865.748 420.752 M 812 409.741 L 812 456.483 834 434.500 L 856 412.517 856 387.759 L 856 363 834 363 L 812 363 812 409.741 M 1454.969 440.536 C 1448.531 442.521, 1440.230 448.680, 1436.327 454.369 C 1431.569 461.304, 1429.725 468.486, 1430.172 478.345 C 1430.647 488.825, 1434.056 496.566, 1441.119 503.201 C 1448.327 509.973, 1455.105 512.375, 1467 512.375 C 1477.448 512.375, 1483.472 510.623, 1492.325 505.009 L 1497.052 502.011 1496.776 486.755 L 1496.500 471.500 1481.500 471.500 L 1466.500 471.500 1466.500 477 L 1466.500 482.500 1475.361 483 L 1484.222 483.500 1484.361 489.783 L 1484.500 496.065 1480 498.261 C 1477.063 499.694, 1473.069 500.581, 1468.500 500.814 C 1462.334 501.128, 1460.847 500.828, 1456.017 498.292 C 1446.091 493.080, 1441.301 482.134, 1443.778 470.323 C 1446.255 458.515, 1453.702 451.808, 1465.048 451.167 C 1472.573 450.742, 1477.087 451.891, 1482.608 455.638 L 1486.314 458.153 1490.114 453.826 C 1492.205 451.447, 1493.934 449.153, 1493.957 448.728 C 1494.033 447.362, 1484.654 441.976, 1479.568 440.465 C 1473.441 438.645, 1460.988 438.681, 1454.969 440.536 M 1546.286 440.387 C 1530.235 445.647, 1520.760 458.597, 1520.595 475.500 C 1520.499 485.273, 1522.667 492.134, 1527.967 498.839 C 1544.766 520.091, 1579.273 516.472, 1591.219 492.206 C 1594.265 486.019, 1594.500 484.825, 1594.500 475.521 C 1594.500 466.565, 1594.201 464.893, 1591.693 459.783 C 1587.975 452.210, 1581.744 445.971, 1574.450 442.517 C 1569.601 440.221, 1566.834 439.635, 1559.500 439.353 C 1553.655 439.127, 1549.023 439.490, 1546.286 440.387 M 2055.500 439.935 C 2045.331 442.411, 2038.999 450.189, 2039.002 460.200 C 2039.005 471.244, 2044.341 476.189, 2061.500 481.052 C 2076.762 485.378, 2079.868 487.771, 2078.471 494.131 C 2076.534 502.952, 2059.823 503.479, 2047.649 495.102 L 2043.320 492.124 2039.503 496.690 L 2035.687 501.255 2038.094 503.136 C 2042.953 506.934, 2052.753 511.094, 2059.208 512.099 C 2070.702 513.888, 2082.260 510.459, 2087.387 503.737 C 2090.371 499.825, 2092.218 492.423, 2091.358 487.819 C 2089.686 478.870, 2083.741 474.417, 2066.832 469.451 C 2054.184 465.736, 2052 464.197, 2052 459 C 2052 449.845, 2064.118 447.739, 2077.333 454.598 C 2081.110 456.558, 2082.474 456.852, 2083.571 455.941 C 2085.254 454.545, 2089.381 448.026, 2088.864 447.582 C 2081.198 440.994, 2065.721 437.447, 2055.500 439.935 M 1612 445.985 L 1612 452 1623.500 452 L 1635 452 1635 482 L 1635 512 1641.500 512 L 1648 512 1648 482.033 L 1648 452.066 1659.250 451.783 L 1670.500 451.500 1670.500 446 L 1670.500 440.500 1641.250 440.235 L 1612 439.970 1612 445.985 M 1693 476 L 1693 512 1718 512 L 1743 512 1743 506 L 1743 500 1724.500 500 L 1706 500 1706 470 L 1706 440 1699.500 440 L 1693 440 1693 476 M 1792.647 443.250 C 1791.888 445.038, 1784.907 460.995, 1777.134 478.710 C 1769.360 496.426, 1763 511.163, 1763 511.460 C 1763 511.757, 1765.863 512, 1769.363 512 L 1775.726 512 1779.500 503 L 1783.274 494 1799.515 494 C 1811.337 494, 1816.012 494.340, 1816.699 495.250 C 1817.219 495.938, 1819.134 499.988, 1820.957 504.250 L 1824.270 512 1830.635 512 C 1834.136 512, 1837.005 511.663, 1837.010 511.250 C 1837.016 510.837, 1830.153 494.645, 1821.760 475.266 L 1806.500 440.031 1800.263 440.016 C 1794.171 440, 1793.995 440.075, 1792.647 443.250 M 1859.455 441.256 C 1859.190 441.947, 1859.092 458.035, 1859.237 477.006 L 1859.500 511.500 1865.733 511.797 L 1871.965 512.095 1872.233 486.832 L 1872.500 461.569 1889.901 484.034 C 1912.616 513.363, 1911.287 512, 1917.187 512 L 1922 512 1922 476 L 1922 440 1916 440 L 1910 440 1910 464 C 1910 477.200, 1909.662 487.984, 1909.250 487.965 C 1908.838 487.946, 1900.175 477.152, 1890 463.978 L 1871.500 440.026 1865.719 440.013 C 1861.991 440.005, 1859.766 440.446, 1859.455 441.256 M 1951.492 441.161 C 1951.207 441.904, 1951.092 458.035, 1951.237 477.006 L 1951.500 511.500 1965 511.785 C 1972.425 511.942, 1981.381 511.623, 1984.903 511.077 C 1997.476 509.128, 2007.870 501.677, 2012.906 491 C 2015.158 486.224, 2015.500 484.184, 2015.500 475.500 C 2015.500 466.398, 2015.234 464.975, 2012.536 459.650 C 2008.848 452.371, 2001.677 445.805, 1994.202 442.864 C 1989.217 440.902, 1986.207 440.569, 1970.255 440.215 C 1955.569 439.888, 1951.909 440.073, 1951.492 441.161 M 1547.444 452.886 C 1545.213 453.899, 1541.779 456.608, 1539.812 458.906 C 1530.002 470.368, 1532.739 489.616, 1545.282 497.371 C 1564.273 509.112, 1586.962 490.579, 1580.559 468.555 C 1578.620 461.887, 1573.317 455.515, 1567.500 452.866 C 1562.206 450.455, 1552.776 450.464, 1547.444 452.886 M 1964 476 L 1964 500 1973.374 500 C 1987.614 500, 1994.655 496.845, 1999.746 488.185 C 2002.099 484.182, 2002.497 482.408, 2002.477 476 C 2002.450 467.229, 2000.202 461.961, 1994.473 457.238 C 1989.538 453.171, 1984.881 452, 1973.634 452 L 1964 452 1964 476 M 1793.802 469.250 L 1788.172 482.500 1794.086 482.798 C 1797.339 482.961, 1802.661 482.961, 1805.914 482.798 L 1811.828 482.500 1806.198 469.250 C 1803.102 461.962, 1800.313 456, 1800 456 C 1799.687 456, 1796.898 461.962, 1793.802 469.250 M 1183 495.500 C 1192.613 505.125, 1200.596 513, 1200.739 513 C 1200.883 513, 1201 505.125, 1201 495.500 L 1201 478 1183.261 478 L 1165.521 478 1183 495.500 M 1214.686 478.648 C 1214.309 479.025, 1214 489.158, 1214 501.167 L 1214 523 1236.519 523 L 1259.038 523 1258.769 500.750 L 1258.500 478.500 1236.936 478.231 C 1225.075 478.083, 1215.063 478.271, 1214.686 478.648 M 856 615.500 L 856 708 977.500 708 L 1099 708 1099 615.500 L 1099 523 977.500 523 L 856 523 856 615.500 M 869 558 L 869 580 891.500 580 L 914 580 914 558 L 914 536 891.500 536 L 869 536 869 558 M 927 558 L 927 580 949 580 L 971 580 971 558 L 971 536 949 536 L 927 536 927 558 M 984 558 L 984 580 1006.500 580 L 1029 580 1029 558 L 1029 536 1006.500 536 L 984 536 984 558 M 1042 558 L 1042 580 1064 580 L 1086 580 1086 558 L 1086 536 1064 536 L 1042 536 1042 558 M 1544.652 565.203 C 1543.875 567.016, 1537.059 582.675, 1529.506 600 C 1521.953 617.325, 1515.543 632.084, 1515.261 632.799 C 1514.865 633.802, 1516.273 634.029, 1521.455 633.799 L 1528.160 633.500 1531.472 625.500 L 1534.784 617.500 1551.738 617.227 L 1568.692 616.954 1572.177 625.227 L 1575.662 633.500 1582.331 633.796 C 1585.999 633.958, 1589 633.885, 1589 633.633 C 1589 633.381, 1582.058 617.273, 1573.574 597.837 L 1558.148 562.500 1552.107 562.203 C 1546.123 561.909, 1546.053 561.937, 1544.652 565.203 M 1778.383 564.344 C 1769.896 568.392, 1765.186 577.057, 1766.615 585.992 C 1768.064 595.053, 1774.881 600.260, 1790.279 604.067 C 1801.273 606.786, 1805.385 609.375, 1805.819 613.853 C 1806.928 625.306, 1789.173 627.278, 1774.733 617.306 L 1770.967 614.705 1767.525 618.603 C 1765.632 620.746, 1764.065 622.957, 1764.042 623.516 C 1763.987 624.860, 1772.337 630.198, 1778 632.439 C 1780.475 633.419, 1786.143 634.455, 1790.596 634.742 C 1807.888 635.854, 1818.914 627.684, 1818.978 613.710 C 1819.027 602.952, 1812.683 597.075, 1796.111 592.530 C 1784.557 589.362, 1780.302 587.051, 1779.400 583.457 C 1776.928 573.609, 1790.443 569.965, 1804.183 576.776 C 1808.724 579.026, 1810.672 579.562, 1811.172 578.698 C 1811.553 578.039, 1813.035 575.930, 1814.465 574.011 C 1816.928 570.708, 1816.971 570.448, 1815.283 569.147 C 1809.678 564.826, 1802.435 562.582, 1793 562.244 C 1784.580 561.942, 1782.918 562.181, 1778.383 564.344 M 2101 564.026 C 2093.403 567.568, 2089.937 571.799, 2088.607 579.152 C 2087.788 583.680, 2089.246 590.502, 2091.764 593.920 C 2094.578 597.742, 2102.394 601.623, 2112.114 604.027 C 2125.477 607.331, 2129.306 610.661, 2127.593 617.487 C 2126.565 621.581, 2122.473 623.512, 2115.043 623.411 C 2108.081 623.315, 2102.964 621.609, 2096.733 617.306 L 2092.967 614.705 2089.525 618.603 C 2087.632 620.746, 2086.065 622.957, 2086.042 623.516 C 2085.987 624.860, 2094.337 630.198, 2100 632.439 C 2106.765 635.117, 2119.499 635.659, 2125.877 633.541 C 2135.455 630.360, 2140.956 623.230, 2140.956 614 C 2140.956 602.924, 2134.753 597.095, 2118.111 592.530 C 2106.557 589.362, 2102.302 587.051, 2101.400 583.457 C 2098.928 573.609, 2112.443 569.965, 2126.183 576.776 C 2130.724 579.026, 2132.672 579.562, 2133.172 578.698 C 2133.553 578.039, 2135.035 575.930, 2136.465 574.011 C 2138.928 570.708, 2138.971 570.448, 2137.283 569.147 C 2136.302 568.391, 2133.025 566.605, 2130 565.178 C 2122.234 561.515, 2107.630 560.935, 2101 564.026 M 2256.297 576.250 C 2252.900 584.087, 2245.852 600.288, 2240.636 612.250 L 2231.151 634 2237.843 634 L 2244.534 634 2247.951 625.477 L 2251.367 616.954 2268.350 617.227 L 2285.332 617.500 2288.810 625.750 L 2292.289 634 2299.096 634 L 2305.903 634 2304.702 631.213 C 2304.041 629.680, 2296.975 613.488, 2289 595.232 L 2274.500 562.038 2268.487 562.019 L 2262.474 562 2256.297 576.250 M 1433 598.500 L 1433 634 1439.500 634 L 1446 634 1446 623.547 L 1446 613.093 1451.250 607.453 L 1456.501 601.812 1468.333 617.469 C 1474.841 626.080, 1480.735 633.345, 1481.432 633.612 C 1482.128 633.880, 1485.725 633.964, 1489.425 633.799 L 1496.151 633.500 1481.001 613.724 C 1472.668 602.848, 1465.997 593.543, 1466.175 593.048 C 1466.354 592.552, 1472.940 585.588, 1480.811 577.573 L 1495.122 563 1487.311 562.961 L 1479.500 562.922 1462.783 580.211 L 1446.066 597.500 1446.033 580.250 L 1446 563 1439.500 563 L 1433 563 1433 598.500 M 1611.775 598.500 L 1612.050 634 1637.075 634 L 1662.100 634 1661.800 628.250 L 1661.500 622.500 1642.750 622.228 L 1624 621.956 1624 592.478 L 1624 563 1617.750 563 L 1611.500 562.999 1611.775 598.500 M 1684 598.500 L 1684 634 1690.500 634 L 1697 634 1697 623.716 L 1697 613.432 1702.281 608.216 C 1705.186 605.347, 1707.827 603, 1708.150 603 C 1708.473 603, 1714.037 609.975, 1720.516 618.500 L 1732.295 634 1739.648 634 C 1743.691 634, 1747 633.738, 1747 633.418 C 1747 633.098, 1740.564 624.436, 1732.698 614.168 C 1724.832 603.901, 1718.082 594.980, 1717.698 594.345 C 1717.279 593.653, 1722.845 587.149, 1731.604 578.095 L 1746.209 563 1738.272 563 L 1730.335 563 1714.418 579.978 C 1705.663 589.316, 1698.162 596.966, 1697.750 596.978 C 1697.338 596.990, 1697 589.350, 1697 580 L 1697 563 1690.500 563 L 1684 563 1684 598.500 M 1838.381 568.250 L 1838.500 573.500 1849.750 573.783 L 1861 574.066 1861 604.033 L 1861 634 1867.485 634 L 1873.970 634 1874.235 604.250 L 1874.500 574.500 1885.750 574.217 L 1897 573.934 1897 568.467 L 1897 563 1867.631 563 L 1838.263 563 1838.381 568.250 M 1919 598.500 L 1919 634 1946 634 L 1973 634 1973 628.521 L 1973 623.041 1952.750 622.771 L 1932.500 622.500 1932.212 613.250 L 1931.925 604 1950.012 604 L 1968.100 604 1967.800 598.250 L 1967.500 592.500 1949.750 592.227 L 1932 591.954 1932 582.998 L 1932 574.041 1952.250 573.771 L 1972.500 573.500 1972.802 568.250 L 1973.105 563 1946.052 563 L 1919 563 1919 598.500 M 1999 598.452 L 1999 634 2004.983 634 L 2010.966 634 2011.233 608.837 L 2011.500 583.675 2031 608.818 L 2050.500 633.962 2056.250 633.981 L 2062 634 2062 598.500 L 2062 563 2055.518 563 L 2049.036 563 2048.768 587.086 L 2048.500 611.172 2029.973 587.336 L 2011.446 563.500 2005.223 563.202 L 1999 562.905 1999 598.452 M 2166 598.500 L 2166 634 2172.500 634 L 2179 634 2179 619.500 L 2179 605 2197.050 605 L 2215.100 605 2214.800 599.250 L 2214.500 593.500 2196.750 593.227 L 2179 592.954 2179 583.477 L 2179 574 2199.500 574 L 2220 574 2220 568.500 L 2220 563 2193 563 L 2166 563 2166 598.500 M 2328 598.500 L 2328 634 2347.818 634 C 2371.589 634, 2376.252 633.012, 2382.647 626.616 C 2387.477 621.786, 2389.071 615.517, 2387.121 609.010 C 2385.932 605.041, 2379.138 598, 2376.497 598 C 2374.231 598, 2374.702 596.241, 2377.451 594.440 C 2380.619 592.365, 2384 585.343, 2384 580.842 C 2384 574.850, 2380.085 568.910, 2374.063 565.764 C 2368.788 563.009, 2368.707 563, 2348.386 563 L 2328 563 2328 598.500 M 2413 598.445 L 2413 634 2419.500 634 L 2426 634 2426 621.500 L 2426 609 2433.750 609.046 L 2441.500 609.092 2450.291 621.546 L 2459.082 634 2466.626 634 L 2474.170 634 2470.719 629.250 C 2468.821 626.638, 2464.535 620.675, 2461.194 616 L 2455.120 607.500 2459.403 605.310 C 2461.759 604.106, 2465.088 601.525, 2466.801 599.574 C 2475.651 589.494, 2472.408 572.177, 2460.523 566.055 C 2455.731 563.586, 2454.846 563.490, 2434.282 563.195 L 2413 562.890 2413 598.445 M 2498 598.500 L 2498 634 2504.500 634 L 2511 634 2511 598.500 L 2511 563 2504.500 563 L 2498 563 2498 598.500 M 2540 598.500 L 2540 634 2546.500 634 L 2553 634 2553 623.716 L 2553 613.432 2558.402 608.096 C 2561.374 605.162, 2564.215 603.015, 2564.716 603.325 C 2565.218 603.635, 2570.771 610.663, 2577.057 618.944 L 2588.486 634 2596.299 634 L 2604.112 634 2592.841 619.250 C 2586.642 611.138, 2579.665 602.054, 2577.337 599.065 L 2573.105 593.629 2587.660 578.315 L 2602.216 563 2594.358 563.024 L 2586.500 563.047 2570.548 580.024 C 2561.775 589.361, 2554.237 597, 2553.798 597 C 2553.359 597, 2553 589.350, 2553 580 L 2553 563 2546.500 563 L 2540 563 2540 598.500 M 2341 583.626 L 2341 593.252 2352.514 592.811 C 2362.094 592.444, 2364.486 592.028, 2366.764 590.333 C 2372.282 586.225, 2372.262 579.350, 2366.723 575.973 C 2364.024 574.327, 2361.669 574.007, 2352.250 574.004 L 2341 574 2341 583.626 M 2426 586 L 2426 598 2436.250 597.994 C 2453.268 597.985, 2458.500 595.165, 2458.500 586 C 2458.500 576.835, 2453.268 574.015, 2436.250 574.006 L 2426 574 2426 586 M 1545.872 591.293 C 1542.784 598.557, 1540.451 604.837, 1540.688 605.250 C 1541.173 606.095, 1562.370 606.296, 1563.203 605.464 C 1563.710 604.956, 1553.460 580.293, 1552.119 578.793 C 1551.771 578.404, 1548.960 584.029, 1545.872 591.293 M 2266.700 581.142 C 2265.921 582.989, 2263.420 588.865, 2261.142 594.199 C 2258.864 599.533, 2257 604.371, 2257 604.949 C 2257 605.623, 2261.128 606, 2268.500 606 C 2274.825 606, 2280 605.626, 2280 605.168 C 2280 604.396, 2269.091 578.937, 2268.420 578.142 C 2268.253 577.945, 2267.480 579.295, 2266.700 581.142 M 869 615.500 L 869 638 891.500 638 L 914 638 914 615.500 L 914 593 891.500 593 L 869 593 869 615.500 M 927 615.500 L 927 638 949 638 L 971 638 971 615.500 L 971 593 949 593 L 927 593 927 615.500 M 984.448 594.276 C 984.178 594.978, 984.080 604.990, 984.229 616.526 L 984.500 637.500 1006.750 637.769 L 1029 638.038 1029 615.519 L 1029 593 1006.969 593 C 990.028 593, 984.824 593.295, 984.448 594.276 M 1042 615.500 L 1042 638 1064 638 L 1086 638 1086 615.500 L 1086 593 1064 593 L 1042 593 1042 615.500 M 2340.998 613.250 L 2341 623 2352.250 622.994 C 2358.438 622.991, 2365.167 622.526, 2367.205 621.960 C 2374.495 619.935, 2377.175 612.642, 2372.588 607.306 C 2370.195 604.521, 2370.069 604.496, 2355.586 604 L 2340.996 603.500 2340.998 613.250 M 948.750 650.749 L 927 651.039 927 673.020 L 927 695 949 695 L 971 695 971 672.500 C 971 660.125, 970.888 650.103, 970.750 650.229 C 970.612 650.356, 960.712 650.589, 948.750 650.749 M 869 673 L 869 695 891.500 695 L 914 695 914 673 L 914 651 891.500 651 L 869 651 869 673 M 984 673 L 984 695 1006.500 695 L 1029 695 1029 673 L 1029 651 1006.500 651 L 984 651 984 673 M 1042 673 L 1042 695 1064 695 L 1086 695 1086 673 L 1086 651 1064 651 L 1042 651 1042 673 M 1711.300 685.798 C 1708.440 686.822, 1704.254 688.938, 1701.997 690.502 C 1684.561 702.585, 1681.350 730.206, 1695.554 745.928 C 1708.890 760.690, 1732.660 761.917, 1751.250 748.804 L 1754 746.864 1754 731.932 L 1754 717 1738.500 717 L 1723 717 1723 722.500 L 1723 728 1732.046 728 L 1741.091 728 1740.796 734.750 L 1740.500 741.500 1736.500 743.468 C 1734.170 744.615, 1729.714 745.599, 1725.827 745.827 C 1720.285 746.151, 1718.220 745.790, 1713.646 743.696 C 1696.753 735.962, 1695.151 710.571, 1710.860 699.531 C 1714.865 696.716, 1715.795 696.500, 1723.924 696.500 C 1732.084 696.500, 1733.035 696.723, 1737.978 699.795 L 1743.279 703.091 1746.148 699.795 C 1751.294 693.886, 1751.339 693.506, 1747.223 690.663 C 1740.649 686.124, 1735.998 684.735, 1726 684.326 C 1718.533 684.020, 1715.387 684.335, 1711.300 685.798 M 1793.882 685.314 C 1783.197 689.328, 1778.497 695.587, 1778.588 705.678 C 1778.688 716.814, 1783.361 721.029, 1801.505 726.355 C 1814.595 730.198, 1818 732.516, 1818 737.585 C 1818 739.972, 1817.192 741.502, 1814.923 743.411 C 1812.282 745.633, 1810.902 745.999, 1805.173 745.990 C 1798.101 745.980, 1789.758 742.983, 1785.376 738.878 L 1783.252 736.888 1779.609 741.144 C 1777.606 743.484, 1776.114 745.872, 1776.295 746.450 C 1776.925 748.466, 1786.297 754.031, 1791.876 755.701 C 1798.594 757.712, 1811.001 757.911, 1816.336 756.095 C 1830.968 751.112, 1835.962 731.877, 1825.015 722.666 C 1820.982 719.272, 1817.703 717.886, 1805.561 714.440 C 1795.605 711.615, 1791 708.659, 1791 705.095 C 1791 695.634, 1802.935 692.740, 1815.811 699.078 C 1819.316 700.804, 1822.505 701.830, 1822.897 701.358 C 1823.289 700.886, 1824.835 698.827, 1826.332 696.782 L 1829.053 693.064 1825.277 690.571 C 1823.199 689.200, 1819.475 687.349, 1817 686.459 C 1810.761 684.215, 1798.434 683.605, 1793.882 685.314 M 1433 721.026 L 1433 757.199 1454.250 756.811 C 1473.911 756.453, 1475.894 756.248, 1480.773 754.079 C 1486.980 751.319, 1490.528 747.465, 1492.043 741.842 C 1494.272 733.564, 1491.081 725.913, 1483.787 722.043 L 1479.281 719.653 1483.031 716.076 C 1492.272 707.262, 1490.100 693.802, 1478.499 688 C 1473.743 685.621, 1472.517 685.484, 1453.250 685.176 L 1433 684.853 1433 721.026 M 1516.263 709.750 C 1516.539 724.424, 1517.202 735.997, 1517.891 738.177 C 1520.138 745.285, 1525.081 751.241, 1531.408 754.467 C 1536.762 757.196, 1538.216 757.478, 1546.909 757.478 C 1555.400 757.478, 1557.164 757.155, 1562.259 754.662 C 1568.511 751.603, 1571.693 748.110, 1575.208 740.445 C 1577.339 735.799, 1577.497 733.971, 1577.826 710.250 L 1578.177 685 1571.638 685 L 1565.099 685 1564.800 709.250 C 1564.526 731.424, 1564.324 733.842, 1562.442 737.500 C 1559.493 743.231, 1553.374 746.253, 1545.737 745.750 C 1537.394 745.201, 1531.831 740.502, 1529.957 732.423 C 1529.457 730.265, 1529.037 718.712, 1529.024 706.750 L 1529 685 1522.399 685 L 1515.798 685 1516.263 709.750 M 1606.237 720.750 L 1606.500 756.500 1612.750 756.798 L 1619 757.095 1619 744.548 L 1619 732 1626.947 732 L 1634.895 732 1643.678 744.500 L 1652.462 757 1659.731 757 C 1663.729 757, 1667 756.778, 1667 756.508 C 1667 756.237, 1662.950 750.384, 1658 743.500 C 1653.050 736.616, 1649 730.587, 1649 730.101 C 1649 729.615, 1650.013 728.958, 1651.250 728.642 C 1652.487 728.326, 1655.246 726.622, 1657.379 724.855 C 1667.472 716.495, 1667.615 700.015, 1657.671 691.284 C 1651.718 686.057, 1646.188 685, 1624.806 685 L 1605.975 685 1606.237 720.750 M 1849 685.556 C 1849 685.862, 1855.589 702.062, 1863.642 721.556 L 1878.284 757 1884.035 757 C 1887.703 757, 1889.967 756.547, 1890.285 755.750 C 1890.560 755.063, 1896.959 739.650, 1904.506 721.500 C 1912.054 703.350, 1918.460 687.691, 1918.744 686.701 C 1919.209 685.075, 1918.600 684.931, 1912.387 685.201 L 1905.515 685.500 1895.063 712.256 C 1889.315 726.971, 1884.308 738.671, 1883.938 738.256 C 1883.568 737.840, 1878.634 725.688, 1872.975 711.250 L 1862.685 685 1855.842 685 C 1852.079 685, 1849 685.250, 1849 685.556 M 1942 721.048 L 1942 757.095 1948.250 756.798 L 1954.500 756.500 1954.763 720.750 L 1955.025 685 1948.513 685 L 1942 685 1942 721.048 M 1984 721.048 L 1984 757.095 1990.250 756.798 L 1996.500 756.500 1996.782 745.934 L 1997.064 735.369 2002.568 729.934 C 2006.081 726.465, 2008.330 724.908, 2008.786 725.629 C 2009.179 726.250, 2014.672 733.562, 2020.993 741.879 L 2032.486 757 2039.743 757 C 2043.734 757, 2046.998 756.663, 2046.995 756.250 C 2046.992 755.837, 2044.394 752.125, 2041.222 748 C 2038.051 743.875, 2031.252 735.002, 2026.115 728.281 L 2016.775 716.063 2031.388 700.781 L 2046.002 685.500 2038.538 685.209 L 2031.073 684.917 2020.287 696.204 C 2014.354 702.412, 2006.696 710.418, 2003.268 713.996 L 1997.036 720.500 1997.018 702.750 L 1997 685 1990.500 685 L 1984 685 1984 721.048 M 1445.750 696.553 C 1445.338 696.982, 1445 701.308, 1445 706.167 L 1445 715 1456.032 715 C 1469.059 715, 1473.033 713.748, 1474.988 709.029 C 1476.638 705.046, 1475.551 701.487, 1471.840 698.724 C 1469.673 697.111, 1467.078 696.654, 1457.840 696.259 C 1451.603 695.992, 1446.162 696.124, 1445.750 696.553 M 1619.218 708.750 L 1619.500 720.500 1631 720.419 C 1643.941 720.327, 1647.899 719.030, 1650.483 714.033 C 1653.599 708.008, 1651.721 701.628, 1645.986 698.752 C 1643.258 697.383, 1639.937 697.003, 1630.718 697.002 L 1618.937 697 1619.218 708.750 M 1445 735.500 L 1445 745 1458.750 744.996 C 1470.615 744.993, 1472.938 744.725, 1475.696 743.044 C 1482.299 739.018, 1480.708 730.040, 1472.906 727.306 C 1471.025 726.647, 1464.014 726.088, 1457.250 726.056 L 1445 726 1445 735.500 M 924 814.876 C 910.711 819.249, 904.481 829.114, 908.448 839.502 C 909.390 841.969, 911.705 845.260, 913.594 846.817 L 917.028 849.647 913.342 852.074 C 908.377 855.343, 905.963 858.856, 905.304 863.773 C 904.414 870.407, 905.755 874.779, 910.139 879.535 C 915.453 885.300, 921.759 887.495, 933 887.492 C 940.296 887.490, 942.316 887.089, 947.258 884.667 C 953.970 881.377, 957.486 877.242, 958.894 870.980 C 960.453 864.047, 958.703 858.789, 953.234 853.975 C 950.751 851.789, 948.330 850, 947.856 850 C 947.382 850, 948.743 848.420, 950.880 846.489 C 955.867 841.984, 957.376 838.260, 956.769 831.949 C 955.806 821.921, 946.662 814.950, 933.716 814.374 C 929.747 814.198, 925.375 814.423, 924 814.876 M 859.500 817.802 C 855.100 819.245, 851.337 820.531, 851.137 820.659 C 850.535 821.046, 853.149 831.001, 853.850 830.989 C 854.207 830.983, 856.709 830.308, 859.409 829.489 C 862.109 828.670, 864.696 828, 865.159 828 C 865.622 828, 866 841.275, 866 857.500 L 866 887 872.500 887 L 879 887 879 851 L 879 815 873.250 815.090 C 869.976 815.141, 864.055 816.309, 859.500 817.802 M 979 820.500 L 979 826 997 826 C 1006.900 826, 1015 826.231, 1015 826.513 C 1015 826.795, 1008.025 840.122, 999.500 856.128 C 990.975 872.134, 984 885.628, 984 886.115 C 984 886.602, 987.038 886.996, 990.750 886.992 L 997.500 886.984 1013.750 855.903 C 1028.325 828.026, 1030 824.317, 1030 819.911 L 1030 815 1004.500 815 L 979 815 979 820.500 M 1053 820.474 L 1053 825.948 1067.980 826.224 L 1082.960 826.500 1073.546 836.591 L 1064.132 846.681 1065.187 850.841 L 1066.243 855 1072.154 855 C 1081.052 855, 1087.497 858.452, 1088.022 863.500 C 1088.505 868.144, 1087.837 870.317, 1085.077 873.077 C 1082.541 875.613, 1081.411 876, 1076.545 876 C 1069.978 876, 1064.686 874.032, 1060.500 870.033 L 1057.500 867.167 1053 871.076 C 1047.732 875.652, 1047.936 876.536, 1055.451 881.715 C 1075.194 895.320, 1101 885.846, 1101 864.992 C 1101 855.528, 1095.280 848.664, 1085.191 846.020 L 1080.883 844.891 1088.927 836.080 C 1093.351 831.234, 1097.652 826.704, 1098.485 826.012 C 1099.459 825.204, 1100 823.014, 1100 819.878 L 1100 815 1076.500 815 L 1053 815 1053 820.474 M 924.775 826.559 C 921.427 828.376, 920 830.899, 920 835 C 920 841.911, 925.013 845.495, 933.671 844.777 C 949.409 843.472, 947.837 824.916, 932 825.044 C 929.525 825.064, 926.274 825.746, 924.775 826.559 M 923.198 857.673 C 911.793 863.294, 918.067 877, 932.045 877 C 943.204 877, 950.447 868.366, 945.369 861.117 C 941.908 856.174, 929.994 854.324, 923.198 857.673" stroke="none" fill="#000000" fill-rule="evenodd"/>
</svg>